# Blender 4.1.0
# www.blender.org
o Cone
v -0.250000 -0.433013 -2.000275
v -0.062500 -0.108253 0.404003
v -0.125000 -0.000000 0.404003
v -0.226332 0.431185 -1.977486
v -0.042733 0.109929 0.383358
v -0.093750 -0.054127 0.404003
v -0.372370 -0.191465 -2.000275
v -0.062500 0.108253 0.404003
v 0.000000 0.054127 0.404003
v -0.042733 0.099929 0.383358
v -0.226332 0.421185 -1.977486
v -0.093750 0.054127 0.404003
v -0.372370 0.191465 -2.000275
v 0.000000 -0.433013 -2.000275
v 0.000000 -0.108253 0.404003
v 0.000000 0.108253 0.404003
v 0.000000 -0.000000 0.404003
v 0.000000 0.109929 0.383358
v 0.000000 0.421185 -1.977486
v 0.000000 0.099929 0.383358
v 0.000000 -0.054127 0.404003
v -0.553376 -0.164742 -2.877478
v -1.004452 -0.162984 -2.877478
v -1.057056 0.001086 -2.877478
v -0.865456 -0.264800 -2.877478
v -0.863390 0.265472 -2.877478
v -0.262500 0.151554 -2.877478
v -0.552098 0.162984 -2.877478
v -0.250000 -0.433013 -2.877478
v -0.205025 0.450163 -2.851907
v -1.003175 0.164742 -2.877478
v -0.125000 -0.216506 -2.877478
v -0.499495 -0.001087 -2.877478
v -0.125000 0.216506 -2.877478
v -0.693161 -0.265472 -2.877478
v -0.691094 0.264800 -2.877478
v 0.000000 -0.433013 -2.877478
v 0.000000 0.433013 -2.877478
v 0.000000 -0.216506 -2.877478
v 0.000000 0.216506 -2.877478
v -0.262500 -0.151554 -2.877478
v -1.041742 -0.175262 -2.438740
v -1.041742 0.175261 -2.438740
v -1.097336 -0.000000 -2.438740
v -0.876920 -0.313957 -2.438740
v -0.892964 0.313956 -2.438740
v -0.217432 0.433013 -2.438740
v -0.250000 -0.433013 -2.438740
v -0.670601 -0.313956 -2.438740
v -0.373685 -0.203986 -2.438740
v -0.654556 0.313956 -2.438740
v -0.373685 0.203986 -2.438740
v 0.000000 -0.433013 -2.438740
v -1.012972 -0.170838 -2.000275
v -1.068989 -0.000000 -2.000275
v -0.867362 -0.275639 -2.000275
v -0.867362 0.275639 -2.000275
v -1.012972 0.170838 -2.000275
v -0.688258 -0.275579 -2.000275
v -0.688298 0.275439 -2.000275
v 0.000000 0.433013 -2.000275
v 0.000000 0.431185 -1.977486
v -1.042694 0.191465 -2.877478
v -0.879824 0.309797 -2.877478
v -1.042694 -0.191465 -2.877478
v -1.104905 -0.000000 -2.877478
v -0.879824 -0.309797 -2.877478
v -0.678506 -0.309797 -2.877478
v -0.372370 -0.191465 -2.877478
v -0.678506 0.309797 -2.877478
v -0.372370 0.191465 -2.877478
v -0.310159 -0.000000 -2.877478
v -0.552806 -0.163842 -2.827478
v -0.766797 -0.000000 -2.827478
v -0.552806 0.163841 -2.827478
v -1.057058 -0.000000 -2.827478
v -0.499571 -0.000000 -2.827478
v -0.692178 0.265101 -2.827478
v -0.864451 0.265101 -2.827478
v -1.003823 0.163841 -2.827478
v -0.692178 -0.265101 -2.827478
v -0.864451 -0.265101 -2.827478
v -1.003823 -0.163842 -2.827478
v -0.262500 -0.151554 -2.827478
v 0.000000 -0.108253 -2.827478
v -0.125000 -0.216506 -2.827478
v -0.262500 0.151554 -2.827478
v 0.000000 0.108253 -2.827478
v 0.000000 -0.216506 -2.827478
v -0.125000 0.216506 -2.827478
v -0.310159 -0.000000 -2.827478
v 0.000000 0.216506 -2.827478
v 0.000000 0.000000 -2.827478
v -0.499012 0.193474 -2.877478
v -0.499012 -0.207035 -2.438740
v -0.533170 0.108025 -2.000275
v -0.533170 -0.178048 -2.000275
v -0.499012 -0.144397 -2.000275
v -0.499012 -0.001722 -2.000275
v -0.499012 0.203591 -2.438740
v -0.499012 -0.001722 -2.877478
v -0.499012 -0.196918 -2.877478
v -0.533170 0.174907 -2.000275
v -0.109375 0.027063 0.404003
v -0.250000 0.433013 -2.438740
v -0.250000 0.433013 -2.877478
v 0.000000 0.433013 -2.851907
v 0.000000 0.433013 -2.025835
v -0.250000 0.433013 -2.000275
v 0.000000 0.654348 -2.438740
v 0.000000 0.654348 -2.851907
v 0.000000 0.578373 -2.183024
v -0.121196 0.433013 -2.025835
v -0.204504 0.433013 -2.134429
v -0.199340 0.579071 -2.438740
v -0.190115 0.570576 -2.851907
v -0.114695 0.637197 -2.851907
v -0.201969 0.514991 -2.222920
v -0.121195 0.578373 -2.183024
v -1.042399 -0.186442 -2.136194
v -1.042399 0.186442 -2.136194
v -1.102559 -0.000000 -2.136194
v -0.883897 0.311086 -2.136194
v -0.671082 -0.311086 -2.136194
v -0.883897 -0.311086 -2.136194
v -0.671082 0.311086 -2.136194
v -0.372777 0.195346 -2.136194
v -0.250000 0.433013 -2.136194
v -0.372777 -0.195346 -2.136194
v -0.499012 0.196611 -2.136194
v -0.499012 -0.200054 -2.136194
v 0.000000 -0.433013 -2.136194
v -0.250000 -0.433013 -2.136194
v -0.114188 0.654348 -2.438740
v -0.224429 0.433013 -2.851907
v -0.121185 0.654348 -2.851907
v 0.000000 0.450163 -2.851907
v 0.000000 0.637197 -2.851907
v -0.206337 0.579130 -2.851907
v 0.000000 0.637197 -2.845287
v 0.000000 0.450163 -2.845287
v -0.205025 0.450163 -2.845287
v -0.114695 0.637197 -2.845287
v -0.190115 0.570576 -2.845287
v -1.042694 0.191465 -2.000275
v -0.879824 0.309797 -2.000275
v -1.042694 -0.191465 -2.000275
v -1.104905 -0.000000 -2.000275
v -0.879824 -0.309797 -2.000275
v -0.678506 -0.309797 -2.000275
v -0.678506 0.309797 -2.000275
v -0.499012 0.193474 -2.000275
v -0.499012 -0.196918 -2.000275
v -0.499012 0.123819 -2.000275
v -0.533170 -0.001502 -2.000275
v -0.533170 -0.125978 -2.000275
v -0.533170 -0.125978 -2.050275
v -0.766797 -0.000000 -2.050275
v -0.533170 -0.001502 -2.050275
v -1.068989 -0.000000 -2.050275
v -0.688298 0.275439 -2.050275
v -0.867362 0.275639 -2.050275
v -1.012972 0.170838 -2.050275
v -0.688258 -0.275579 -2.050275
v -0.867362 -0.275639 -2.050275
v -1.012972 -0.170838 -2.050275
v -0.533170 0.108025 -2.050275
v -0.533170 0.174907 -2.050275
v -0.533170 -0.178048 -2.050275
v 0.250000 -0.433013 -2.000275
v 0.062500 -0.108253 0.404003
v 0.125000 -0.000000 0.404003
v 0.226332 0.431185 -1.977486
v 0.042733 0.109929 0.383358
v 0.093750 -0.054127 0.404003
v 0.372370 -0.191465 -2.000275
v 0.062500 0.108253 0.404003
v 0.042733 0.099929 0.383358
v 0.226332 0.421185 -1.977486
v 0.093750 0.054127 0.404003
v 0.372370 0.191465 -2.000275
v 0.553376 -0.164742 -2.877478
v 1.004452 -0.162984 -2.877478
v 1.057056 0.001086 -2.877478
v 0.865456 -0.264800 -2.877478
v 0.863390 0.265472 -2.877478
v 0.262500 0.151554 -2.877478
v 0.552098 0.162984 -2.877478
v 0.250000 -0.433013 -2.877478
v 0.205025 0.450163 -2.851907
v 1.003175 0.164742 -2.877478
v 0.125000 -0.216506 -2.877478
v 0.499495 -0.001087 -2.877478
v 0.125000 0.216506 -2.877478
v 0.693161 -0.265472 -2.877478
v 0.691094 0.264800 -2.877478
v 0.262500 -0.151554 -2.877478
v 1.041742 -0.175262 -2.438740
v 1.041742 0.175261 -2.438740
v 1.097336 -0.000000 -2.438740
v 0.876920 -0.313957 -2.438740
v 0.892964 0.313956 -2.438740
v 0.217432 0.433013 -2.438740
v 0.250000 -0.433013 -2.438740
v 0.670601 -0.313956 -2.438740
v 0.373685 -0.203986 -2.438740
v 0.654556 0.313956 -2.438740
v 0.373685 0.203986 -2.438740
v 1.012972 -0.170838 -2.000275
v 1.068989 -0.000000 -2.000275
v 0.867362 -0.275639 -2.000275
v 0.867362 0.275639 -2.000275
v 1.012972 0.170838 -2.000275
v 0.688258 -0.275579 -2.000275
v 0.688298 0.275439 -2.000275
v 1.042694 0.191465 -2.877478
v 0.879824 0.309797 -2.877478
v 1.042694 -0.191465 -2.877478
v 1.104905 -0.000000 -2.877478
v 0.879824 -0.309797 -2.877478
v 0.678506 -0.309797 -2.877478
v 0.372370 -0.191465 -2.877478
v 0.678506 0.309797 -2.877478
v 0.372370 0.191465 -2.877478
v 0.310159 -0.000000 -2.877478
v 0.552806 -0.163842 -2.827478
v 0.766797 -0.000000 -2.827478
v 0.552806 0.163841 -2.827478
v 1.057058 -0.000000 -2.827478
v 0.499571 -0.000000 -2.827478
v 0.692178 0.265101 -2.827478
v 0.864451 0.265101 -2.827478
v 1.003823 0.163841 -2.827478
v 0.692178 -0.265101 -2.827478
v 0.864451 -0.265101 -2.827478
v 1.003823 -0.163842 -2.827478
v 0.262500 -0.151554 -2.827478
v 0.125000 -0.216506 -2.827478
v 0.262500 0.151554 -2.827478
v 0.125000 0.216506 -2.827478
v 0.310159 -0.000000 -2.827478
v 0.499012 0.193474 -2.877478
v 0.499012 -0.207035 -2.438740
v 0.533170 0.108025 -2.000275
v 0.533170 -0.178048 -2.000275
v 0.499012 -0.144397 -2.000275
v 0.499012 -0.001722 -2.000275
v 0.499012 0.203591 -2.438740
v 0.499012 -0.001722 -2.877478
v 0.499012 -0.196918 -2.877478
v 0.533170 0.174907 -2.000275
v 0.109375 0.027063 0.404003
v 0.250000 0.433013 -2.438740
v 0.250000 0.433013 -2.877478
v 0.250000 0.433013 -2.000275
v 0.121196 0.433013 -2.025835
v 0.204504 0.433013 -2.134429
v 0.199340 0.579071 -2.438740
v 0.190115 0.570576 -2.851907
v 0.114695 0.637197 -2.851907
v 0.201969 0.514991 -2.222920
v 0.121195 0.578373 -2.183024
v 1.042399 -0.186442 -2.136194
v 1.042399 0.186442 -2.136194
v 1.102559 -0.000000 -2.136194
v 0.883897 0.311086 -2.136194
v 0.671082 -0.311086 -2.136194
v 0.883897 -0.311086 -2.136194
v 0.671082 0.311086 -2.136194
v 0.372777 0.195346 -2.136194
v 0.250000 0.433013 -2.136194
v 0.372777 -0.195346 -2.136194
v 0.499012 0.196611 -2.136194
v 0.499012 -0.200054 -2.136194
v 0.250000 -0.433013 -2.136194
v 0.114188 0.654348 -2.438740
v 0.224429 0.433013 -2.851907
v 0.121185 0.654348 -2.851907
v 0.206337 0.579130 -2.851907
v 0.205025 0.450163 -2.845287
v 0.114695 0.637197 -2.845287
v 0.190115 0.570576 -2.845287
v 1.042694 0.191465 -2.000275
v 0.879824 0.309797 -2.000275
v 1.042694 -0.191465 -2.000275
v 1.104905 -0.000000 -2.000275
v 0.879824 -0.309797 -2.000275
v 0.678506 -0.309797 -2.000275
v 0.678506 0.309797 -2.000275
v 0.499012 0.193474 -2.000275
v 0.499012 -0.196918 -2.000275
v 0.499012 0.123819 -2.000275
v 0.533170 -0.001502 -2.000275
v 0.533170 -0.125978 -2.000275
v 0.533170 -0.125978 -2.050275
v 0.766797 -0.000000 -2.050275
v 0.533170 -0.001502 -2.050275
v 1.068989 -0.000000 -2.050275
v 0.688298 0.275439 -2.050275
v 0.867362 0.275639 -2.050275
v 1.012972 0.170838 -2.050275
v 0.688258 -0.275579 -2.050275
v 0.867362 -0.275639 -2.050275
v 1.012972 -0.170838 -2.050275
v 0.533170 0.108025 -2.050275
v 0.533170 0.174907 -2.050275
v 0.533170 -0.178048 -2.050275
vn -0.5202 -0.8506 0.0767
vn -0.3742 -0.6450 0.6663
vn -0.7411 -0.0079 0.6713
vn 0.2441 0.8950 0.3733
vn 0.3573 0.9031 -0.2381
vn -0.5719 -0.3302 0.7510
vn -0.6972 -0.6677 0.2610
vn -0.3669 0.6537 0.6618
vn -0.0000 -0.0000 1.0000
vn 0.5471 0.6240 -0.5579
vn 0.6099 0.5310 0.5882
vn -0.5719 0.3302 0.7510
vn -0.6149 0.7705 0.1681
vn -0.0000 -0.9977 0.0671
vn -0.0000 -0.6581 0.7529
vn -0.0000 0.6779 0.7352
vn -0.0000 0.7352 -0.6779
vn -0.0000 0.6577 0.7533
vn -0.0000 0.7533 -0.6577
vn -0.5001 0.3683 -0.7837
vn 0.5052 0.3621 -0.7833
vn 0.6217 -0.0041 -0.7833
vn 0.1958 0.5898 -0.7834
vn 0.1881 -0.5923 -0.7834
vn 0.4427 -0.3860 -0.8094
vn -0.5049 -0.3618 -0.7837
vn -0.4126 -0.6783 -0.6081
vn 0.2961 0.2617 -0.9186
vn 0.5005 -0.3687 -0.7833
vn 0.1423 0.6343 -0.7599
vn -0.6211 0.0041 -0.7837
vn 0.1423 -0.6343 -0.7599
vn -0.1882 0.5921 -0.7836
vn -0.1959 -0.5896 -0.7836
vn -0.0000 -0.7071 -0.7071
vn -0.0000 0.7071 -0.7071
vn 0.4427 0.3860 -0.8094
vn -0.8321 -0.5547 0.0035
vn -0.8473 0.5311 0.0001
vn -1.0000 -0.0000 -0.0000
vn -0.3346 -0.9424 0.0034
vn -0.3565 0.9343 0.0015
vn -0.6610 0.7502 0.0151
vn -0.5123 -0.8588 -0.0000
vn 0.2762 -0.9611 -0.0023
vn -0.5076 -0.8616 0.0007
vn 0.3070 0.9517 0.0005
vn -0.5194 0.8545 0.0006
vn -0.0000 -1.0000 -0.0000
vn 0.5010 0.3667 0.7839
vn 0.6203 -0.0000 0.7844
vn 0.1907 0.5918 0.7832
vn 0.1905 -0.5918 0.7833
vn 0.5010 -0.3667 0.7839
vn -0.1752 0.6071 0.7751
vn -0.1789 -0.6039 0.7767
vn -0.0000 0.9992 0.0400
vn -0.0000 0.6783 0.7348
vn -0.6248 0.4432 -0.6428
vn -0.2311 0.7235 -0.6505
vn -0.6240 -0.4488 -0.6397
vn -0.7700 -0.0000 -0.6381
vn -0.2371 -0.7253 -0.6463
vn 0.2070 -0.7265 -0.6552
vn -0.2583 -0.4455 -0.8572
vn 0.2071 0.7245 -0.6575
vn -0.2672 0.4469 -0.8538
vn 0.6242 -0.0000 -0.7813
vn -0.6197 0.4478 -0.6446
vn -0.0000 -0.0000 -1.0000
vn -0.6173 -0.4511 -0.6446
vn 0.7650 0.0020 -0.6440
vn -0.7645 -0.0020 -0.6446
vn -0.2343 -0.7279 -0.6444
vn 0.2384 -0.7267 -0.6442
vn 0.6201 -0.4479 -0.6441
vn -0.2381 0.7266 -0.6444
vn 0.2345 0.7280 -0.6442
vn 0.6177 0.4512 -0.6441
vn 0.5871 0.5119 -0.6270
vn 0.1642 0.7322 -0.6610
vn 0.5871 -0.5119 -0.6270
vn 0.1642 -0.7322 -0.6610
vn 0.7638 -0.0000 -0.6454
vn 0.1821 0.5928 -0.7845
vn 0.2895 -0.9572 -0.0014
vn -0.7071 -0.0000 0.7071
vn -0.4834 0.2670 0.8337
vn -0.5477 -0.1613 0.8210
vn 0.3035 0.9528 -0.0000
vn 0.1857 -0.6013 -0.7771
vn -0.4876 -0.2650 0.8319
vn -0.5637 0.3329 0.7559
vn -0.5123 0.8588 -0.0000
vn -0.4125 0.6783 -0.6081
vn -0.0000 0.9312 0.3646
vn -0.5258 0.8478 0.0691
vn -0.0000 0.9896 0.1439
vn -0.0000 0.8690 0.4948
vn -0.1053 0.9600 0.2594
vn -0.3935 0.8969 0.2017
vn -0.8693 0.4886 0.0746
vn 0.5352 -0.2822 -0.7962
vn 0.2142 -0.5660 -0.7961
vn -0.8751 0.4269 0.2282
vn -0.3479 0.8161 0.4615
vn -0.8203 -0.5715 -0.0232
vn -0.8249 0.5651 -0.0137
vn -0.9999 -0.0000 -0.0162
vn -0.3213 0.9469 0.0129
vn 0.2837 -0.9588 0.0171
vn -0.3294 -0.9442 0.0003
vn 0.2873 0.9576 0.0230
vn -0.5164 0.8560 0.0238
vn -0.5183 0.8552 0.0025
vn -0.5047 -0.8630 0.0239
vn 0.2958 0.9549 0.0262
vn 0.2996 -0.9538 0.0231
vn -0.5183 -0.8552 0.0025
vn -0.3377 0.9320 0.1314
vn -0.2907 0.9192 -0.2655
vn -0.2765 0.7229 -0.6331
vn -0.6878 0.3611 -0.6297
vn 0.6151 0.5436 -0.5712
vn 0.2733 -0.7222 -0.6354
vn 0.6831 -0.3602 -0.6354
vn -0.6254 0.4483 0.6386
vn -0.2311 0.7235 0.6505
vn -0.6254 -0.4483 0.6386
vn -0.7704 -0.0000 0.6376
vn -0.2311 -0.7235 0.6505
vn 0.2021 -0.7249 0.6586
vn 0.2071 0.7245 0.6574
vn 0.1817 0.5946 0.7832
vn 0.1877 -0.5996 0.7780
vn -0.4159 0.2422 0.8766
vn 0.7657 -0.0000 0.6432
vn -0.2162 -0.7298 0.6486
vn 0.2344 -0.7282 0.6440
vn 0.6176 -0.4521 0.6436
vn -0.2107 0.7303 0.6498
vn 0.2346 0.7281 0.6441
vn 0.6176 0.4521 0.6436
vn -0.6936 -0.3770 0.6138
vn -0.6918 0.3821 0.6127
vn 0.5202 -0.8506 0.0767
vn 0.3742 -0.6450 0.6663
vn 0.7411 -0.0079 0.6713
vn -0.2441 0.8950 0.3733
vn -0.3573 0.9031 -0.2381
vn 0.5719 -0.3302 0.7510
vn 0.6972 -0.6677 0.2610
vn 0.3669 0.6537 0.6618
vn -0.5471 0.6240 -0.5579
vn -0.6099 0.5310 0.5882
vn 0.5719 0.3302 0.7510
vn 0.6149 0.7705 0.1681
vn 0.5001 0.3683 -0.7837
vn -0.5052 0.3621 -0.7833
vn -0.6217 -0.0041 -0.7833
vn -0.1958 0.5898 -0.7834
vn -0.1881 -0.5923 -0.7834
vn -0.4427 -0.3860 -0.8094
vn 0.5049 -0.3618 -0.7837
vn 0.4126 -0.6783 -0.6081
vn -0.2961 0.2617 -0.9186
vn -0.5005 -0.3687 -0.7833
vn -0.1423 0.6343 -0.7599
vn 0.6211 0.0041 -0.7837
vn -0.1423 -0.6343 -0.7599
vn 0.1882 0.5921 -0.7836
vn 0.1959 -0.5896 -0.7836
vn -0.4427 0.3860 -0.8094
vn 0.8321 -0.5547 0.0035
vn 0.8473 0.5311 0.0001
vn 1.0000 -0.0000 -0.0000
vn 0.3346 -0.9424 0.0034
vn 0.3565 0.9343 0.0015
vn 0.6610 0.7502 0.0151
vn 0.5123 -0.8588 -0.0000
vn -0.2762 -0.9611 -0.0023
vn 0.5076 -0.8616 0.0007
vn -0.3070 0.9517 0.0005
vn 0.5194 0.8545 0.0006
vn -0.5010 0.3667 0.7839
vn -0.6203 -0.0000 0.7844
vn -0.1907 0.5918 0.7832
vn -0.1905 -0.5918 0.7833
vn -0.5010 -0.3667 0.7839
vn 0.1752 0.6071 0.7751
vn 0.1789 -0.6039 0.7767
vn 0.6248 0.4432 -0.6428
vn 0.2311 0.7235 -0.6505
vn 0.6240 -0.4488 -0.6397
vn 0.7700 -0.0000 -0.6381
vn 0.2371 -0.7253 -0.6463
vn -0.2070 -0.7265 -0.6552
vn 0.2583 -0.4455 -0.8572
vn -0.2071 0.7245 -0.6575
vn 0.2672 0.4469 -0.8538
vn -0.6242 -0.0000 -0.7813
vn 0.6197 0.4478 -0.6446
vn 0.6173 -0.4511 -0.6446
vn -0.7650 0.0020 -0.6440
vn 0.7645 -0.0020 -0.6446
vn 0.2343 -0.7279 -0.6444
vn -0.2384 -0.7267 -0.6442
vn -0.6201 -0.4479 -0.6441
vn 0.2381 0.7266 -0.6444
vn -0.2345 0.7280 -0.6442
vn -0.6177 0.4512 -0.6441
vn -0.5871 0.5119 -0.6270
vn -0.1642 0.7322 -0.6610
vn -0.5871 -0.5119 -0.6270
vn -0.1642 -0.7322 -0.6610
vn -0.7638 -0.0000 -0.6454
vn -0.1821 0.5928 -0.7845
vn -0.2895 -0.9572 -0.0014
vn 0.7071 -0.0000 0.7071
vn 0.4834 0.2670 0.8337
vn 0.5477 -0.1613 0.8210
vn -0.3035 0.9528 -0.0000
vn -0.1857 -0.6013 -0.7771
vn 0.4876 -0.2650 0.8319
vn 0.5637 0.3329 0.7559
vn 0.5123 0.8588 -0.0000
vn 0.4125 0.6783 -0.6081
vn 0.5258 0.8478 0.0691
vn 0.1053 0.9600 0.2594
vn 0.3935 0.8969 0.2017
vn 0.8693 0.4886 0.0746
vn -0.5352 -0.2822 -0.7962
vn -0.2142 -0.5660 -0.7961
vn 0.8751 0.4269 0.2282
vn 0.3479 0.8161 0.4615
vn 0.8203 -0.5715 -0.0232
vn 0.8249 0.5651 -0.0137
vn 0.9999 -0.0000 -0.0162
vn 0.3213 0.9469 0.0129
vn -0.2837 -0.9588 0.0171
vn 0.3294 -0.9442 0.0003
vn -0.2873 0.9576 0.0230
vn 0.5164 0.8560 0.0238
vn 0.5183 0.8552 0.0025
vn 0.5047 -0.8630 0.0239
vn -0.2958 0.9549 0.0262
vn -0.2996 -0.9538 0.0231
vn 0.5183 -0.8552 0.0025
vn 0.3377 0.9320 0.1314
vn 0.2907 0.9192 -0.2655
vn 0.2765 0.7229 -0.6331
vn 0.6878 0.3611 -0.6297
vn -0.6151 0.5436 -0.5712
vn -0.2733 -0.7222 -0.6354
vn -0.6831 -0.3602 -0.6354
vn 0.6254 0.4483 0.6386
vn 0.2311 0.7235 0.6505
vn 0.6254 -0.4483 0.6386
vn 0.7704 -0.0000 0.6376
vn 0.2311 -0.7235 0.6505
vn -0.2021 -0.7249 0.6586
vn -0.2071 0.7245 0.6574
vn -0.1817 0.5946 0.7832
vn -0.1877 -0.5996 0.7780
vn 0.4159 0.2422 0.8766
vn -0.7657 -0.0000 0.6432
vn 0.2162 -0.7298 0.6486
vn -0.2344 -0.7282 0.6440
vn -0.6176 -0.4521 0.6436
vn 0.2107 0.7303 0.6498
vn -0.2346 0.7281 0.6441
vn -0.6176 0.4521 0.6436
vn 0.6936 -0.3770 0.6138
vn 0.6918 0.3821 0.6127
vt 0.051813 0.524287
vt 0.084954 0.000216
vt 0.103626 0.524287
vt 0.183991 0.523428
vt 0.145093 0.523806
vt 0.105125 0.000000
vt 0.736191 0.190954
vt 0.718899 0.716435
vt 0.677295 0.190865
vt 0.616812 0.860209
vt 0.622704 0.856808
vt 0.628596 0.880620
vt 0.640380 0.880620
vt 0.652164 0.867013
vt 0.652164 0.880620
vt 0.351328 0.195750
vt 0.307990 0.716930
vt 0.303783 0.712423
vt 0.294600 0.716930
vt 0.294628 0.712423
vt 0.979517 0.634991
vt 0.977618 0.120165
vt 0.979517 0.120021
vt 0.605027 0.867013
vt 0.616812 0.880620
vt 0.605027 0.880620
vt 0.640380 0.860209
vt 0.673131 0.637668
vt 0.670954 0.628364
vt 0.673131 0.628364
vt 0.835800 0.516673
vt 0.834855 0.000000
vt 0.883344 0.000000
vt 0.775259 0.819193
vt 0.786046 0.856316
vt 0.775161 0.856318
vt 0.895689 0.804880
vt 0.869178 0.708352
vt 0.898866 0.709471
vt 0.786980 0.804046
vt 0.826207 0.708052
vt 0.829180 0.803580
vt 0.103894 0.619743
vt 0.052348 0.715259
vt 0.052081 0.619743
vt 0.677295 -0.000000
vt 0.733956 0.095496
vt 0.677295 0.095462
vt 0.331336 0.846373
vt 0.342006 0.873145
vt 0.331131 0.873152
vt 0.868370 0.803864
vt 0.677295 0.240554
vt 0.630158 0.267768
vt 0.630158 0.240554
vt 0.672607 0.844104
vt 0.661761 0.818211
vt 0.672646 0.818197
vt 0.488748 0.294983
vt 0.550026 0.297704
vt 0.541337 0.321624
vt 0.909852 0.779080
vt 0.898866 0.814588
vt 0.898968 0.778884
vt 0.763463 0.816791
vt 0.774584 0.843644
vt 0.763699 0.843661
vt 0.558923 0.481108
vt 0.605027 0.576867
vt 0.553953 0.576446
vt 0.342210 0.718032
vt 0.330554 0.743430
vt 0.331339 0.718019
vt 0.515957 0.481924
vt 0.488748 0.240554
vt 0.535885 0.267768
vt 0.720055 0.812016
vt 0.762577 0.907408
vt 0.720932 0.907526
vt 0.677295 0.294983
vt 0.616017 0.297704
vt 0.763681 0.877554
vt 0.774348 0.901380
vt 0.763463 0.901396
vt 0.894989 0.410968
vt 0.905338 0.377474
vt 0.905863 0.411264
vt 0.894457 0.447903
vt 0.905325 0.448168
vt 0.883344 0.351559
vt 0.894456 0.326040
vt 0.894227 0.351635
vt 0.341430 0.780359
vt 0.331325 0.814289
vt 0.330549 0.780202
vt 0.909751 0.814833
vt 0.898965 0.850225
vt 0.883571 0.288999
vt 0.894231 0.255235
vt 0.894457 0.289218
vt 0.883571 0.325853
vt 0.583022 0.308080
vt 0.624706 0.321624
vt 0.104161 0.715259
vt 0.144798 0.619287
vt 0.145628 0.714778
vt 0.679208 0.907408
vt 0.485185 0.906068
vt 0.446685 0.810790
vt 0.485144 0.810573
vt 0.897881 0.870746
vt 0.869178 0.899216
vt 0.868927 0.869658
vt 0.826207 0.898916
vt 0.786557 0.869946
vt 0.827128 0.869363
vt 0.103709 0.553877
vt 0.051896 0.553877
vt 0.735498 0.161363
vt 0.677295 0.161291
vt 0.602974 0.642679
vt 0.558923 0.671891
vt 0.557382 0.642304
vt 0.515957 0.672707
vt 0.516079 0.643115
vt 0.721694 0.746149
vt 0.762582 0.716435
vt 0.762855 0.746017
vt 0.328788 0.185217
vt 0.302869 0.190776
vt 0.302823 0.185217
vt 0.658929 0.481177
vt 0.669641 0.493800
vt 0.658762 0.493869
vt 0.353095 0.818416
vt 0.342449 0.791803
vt 0.353334 0.791782
vt 0.658176 0.538275
vt 0.668925 0.548086
vt 0.658046 0.548155
vt 0.353085 0.892132
vt 0.342760 0.853701
vt 0.353634 0.853767
vt 0.109132 0.874743
vt 0.098885 0.847171
vt 0.110319 0.847171
vt 0.669808 0.583144
vt 0.658929 0.583213
vt 0.353333 0.753334
vt 0.342210 0.718040
vt 0.353095 0.718019
vt 0.669366 0.514584
vt 0.658488 0.514653
vt 0.677588 0.746024
vt 0.677295 0.811895
vt 0.484648 0.744704
vt 0.445355 0.744917
vt 0.669808 0.481108
vt 0.671985 0.530384
vt 0.669808 0.530384
vt 0.302839 0.195751
vt 0.547155 0.458960
vt 0.515574 0.432105
vt 0.525224 0.428527
vt 0.618506 0.459238
vt 0.583022 0.481108
vt 0.582785 0.470691
vt 0.640672 0.428977
vt 0.624706 0.467564
vt 0.541337 0.467564
vt 0.640819 0.391465
vt 0.650469 0.432105
vt 0.515574 0.388275
vt 0.525371 0.391015
vt 0.583396 0.349196
vt 0.650469 0.388275
vt 0.618888 0.361032
vt 0.625894 0.349196
vt 0.582135 0.973580
vt 0.548849 0.925258
vt 0.604181 0.943236
vt 0.582135 0.875387
vt 0.604181 0.905730
vt 0.546465 0.863797
vt 0.510794 0.875387
vt 0.488748 0.905730
vt 0.546465 0.985170
vt 0.510794 0.973580
vt 0.488748 0.943236
vt 0.977618 0.214762
vt 0.954049 0.187547
vt 0.977618 0.187547
vt 0.963477 0.244698
vt 0.930481 0.187547
vt 0.906913 0.187547
vt 0.883344 0.214762
vt 0.883344 0.187547
vt 0.897485 0.244697
vt 0.774566 0.877537
vt 0.330927 0.814397
vt 0.342210 0.846367
vt 0.488986 0.642905
vt 0.170850 0.553413
vt 0.145002 0.553404
vt 0.171511 0.714789
vt 0.170569 0.619293
vt 0.025325 0.847171
vt 0.040490 0.847171
vt 0.025763 0.874743
vt 0.342448 0.753355
vt 0.547538 0.360754
vt 0.540899 0.349196
vt 0.762546 0.190370
vt 0.746112 0.716425
vt 0.739309 0.716427
vt 0.489516 0.577022
vt 0.488748 0.481721
vt 0.786144 0.895170
vt 0.775259 0.895172
vt 0.341430 0.743553
vt 0.583258 0.349301
vt 0.349425 0.005561
vt 0.355643 0.095418
vt 0.348666 0.095418
vt 0.301298 -0.000000
vt 0.354857 -0.000000
vt 0.334134 0.149569
vt 0.658046 0.571232
vt 0.628387 0.481108
vt 0.658046 0.481284
vt 0.670907 0.606984
vt 0.669513 0.583214
vt 0.670954 0.583213
vt 0.335116 0.093192
vt 0.309913 0.003335
vt 0.335875 0.003335
vt 0.356428 0.190776
vt 0.346441 0.161600
vt 0.356185 0.161216
vt 0.308169 0.149569
vt 0.310653 0.093192
vt 0.605027 0.481584
vt 0.628398 0.571056
vt 0.605027 0.571532
vt 0.620655 0.627279
vt 0.657216 0.637539
vt 0.641229 0.618130
vt 0.170977 0.523817
vt 0.516349 0.577247
vt 0.444758 0.715324
vt 0.485185 0.715098
vt 0.679213 0.716435
vt 0.763463 0.811862
vt 0.138629 0.719483
vt 0.134895 0.764120
vt 0.134895 0.715259
vt 0.175615 0.832648
vt 0.134895 0.857619
vt 0.161110 0.816228
vt 0.164844 0.722730
vt 0.183083 0.737737
vt 0.179349 0.739150
vt 0.166707 0.719198
vt 0.183083 0.764120
vt 0.179349 0.764120
vt 0.670954 0.583214
vt 0.672481 0.603855
vt 0.671040 0.603856
vt 0.671985 0.481120
vt 0.673425 0.525032
vt 0.671985 0.525044
vt 0.672395 0.628363
vt 0.670954 0.628364
vt 0.030253 0.735274
vt 0.000000 0.764262
vt 0.025763 0.728803
vt 0.067447 0.723078
vt 0.109132 0.728803
vt 0.104641 0.735274
vt 0.134895 0.764262
vt 0.127458 0.766975
vt 0.067447 0.715259
vt 0.134895 0.808092
vt 0.127445 0.805969
vt 0.007437 0.766975
vt -0.000000 0.808092
vt 0.029367 0.839734
vt 0.007480 0.805960
vt 0.106211 0.839734
vt 0.094875 0.839734
vt 0.067822 0.847171
vt 0.067774 0.839734
vt 0.043929 0.839734
vt 0.234855 0.937513
vt 0.183991 0.937840
vt 0.183991 0.913995
vt 0.217765 0.877546
vt 0.183991 0.899433
vt 0.256750 0.877503
vt 0.288451 0.900319
vt 0.300647 0.937513
vt 0.217756 0.997511
vt 0.256750 0.997524
vt 0.288451 0.974707
vt 0.183991 0.964941
vt 0.183991 0.976277
vt 0.342210 0.818437
vt 0.353085 0.818504
vt 0.669055 0.538205
vt 0.059047 0.000216
vt 0.072001 0.000216
vt 0.419449 0.000005
vt 0.429836 0.524106
vt 0.380341 0.524148
vt 0.213742 0.193205
vt 0.281211 0.716930
vt 0.272420 0.717474
vt 0.622704 0.904433
vt 0.616812 0.901031
vt 0.652164 0.894227
vt 0.640380 0.901031
vt 0.254350 0.195751
vt 0.285473 0.712423
vt 0.977618 0.255404
vt 0.975749 0.775014
vt 0.975749 0.255074
vt 0.605027 0.894227
vt 0.628596 0.907835
vt 0.670954 0.646971
vt 0.673131 0.646971
vt 0.817490 0.516673
vt 0.786367 0.000000
vt 0.905447 0.255074
vt 0.894457 0.292172
vt 0.894562 0.255074
vt 0.446659 0.000000
vt 0.488748 0.524128
vt 0.856320 0.612518
vt 0.816277 0.707967
vt 0.817075 0.612438
vt 0.357279 0.715787
vt 0.393686 0.810443
vt 0.356428 0.811365
vt 0.000267 0.619743
vt 0.213160 0.097721
vt 0.247739 -0.000000
vt 0.248524 0.095418
vt 0.330927 0.899931
vt 0.789553 0.612144
vt 0.630158 0.213340
vt 0.677295 0.186125
vt 0.661682 0.870024
vt 0.672567 0.870011
vt 0.550026 0.183404
vt 0.488748 0.186125
vt 0.541337 0.159484
vt 0.911003 0.552337
vt 0.900217 0.516878
vt 0.911104 0.516673
vt 0.661761 0.902853
vt 0.672646 0.902839
vt 0.439891 0.715645
vt 0.444758 0.811091
vt 0.894457 0.422439
vt 0.883572 0.385877
vt 0.894456 0.385618
vt 0.606795 0.757830
vt 0.646261 0.661789
vt 0.644341 0.757214
vt 0.535885 0.213340
vt 0.900118 0.612348
vt 0.859306 0.708052
vt 0.616017 0.183404
vt 0.624706 0.159484
vt 0.318886 0.872046
vt 0.329829 0.838142
vt 0.329765 0.871987
vt 0.330549 0.814227
vt 0.318891 0.780381
vt 0.329767 0.780074
vt 0.899397 0.742001
vt 0.909746 0.778745
vt 0.898866 0.778884
vt 0.318886 0.743609
vt 0.329767 0.743326
vt 0.898866 0.708143
vt 0.910271 0.741842
vt 0.883344 0.351828
vt 0.911104 0.588024
vt 0.900118 0.552581
vt 0.319663 0.718198
vt 0.330549 0.718019
vt 0.583022 0.173028
vt 0.488748 0.715098
vt 0.432082 0.619577
vt 0.488748 0.619583
vt 0.531402 0.863797
vt 0.490003 0.768173
vt 0.532763 0.768293
vt 0.575455 0.768199
vt 0.576129 0.863697
vt 0.858381 0.546666
vt 0.816277 0.516997
vt 0.859306 0.517081
vt 0.395223 0.876294
vt 0.356428 0.906568
vt 0.356428 0.877056
vt 0.000083 0.553877
vt 0.249309 0.190776
vt 0.213561 0.163606
vt 0.249066 0.161216
vt 0.787355 0.546268
vt 0.816524 0.546583
vt 0.439040 0.906426
vt 0.440813 0.876873
vt 0.605575 0.823778
vt 0.646261 0.852654
vt 0.605027 0.853406
vt 0.898835 0.546493
vt 0.899019 0.516894
vt 0.276858 0.185217
vt 0.775368 0.764700
vt 0.786302 0.751941
vt 0.786253 0.764681
vt 0.774342 0.742877
vt 0.763465 0.781349
vt 0.763463 0.742953
vt 0.775161 0.819191
vt 0.786084 0.809253
vt 0.786046 0.819171
vt 0.658046 0.658594
vt 0.669419 0.620276
vt 0.668920 0.658646
vt 0.293123 0.718019
vt 0.294311 0.745591
vt 0.282876 0.745591
vt 0.658545 0.620224
vt 0.668920 0.583265
vt 0.905342 0.292172
vt 0.894562 0.329338
vt 0.775289 0.785563
vt 0.786174 0.785543
vt 0.488748 0.553718
vt 0.430532 0.553701
vt 0.532855 0.702421
vt 0.488748 0.702298
vt 0.669808 0.579660
vt 0.515574 0.049003
vt 0.547155 0.022148
vt 0.525225 0.052581
vt 0.583022 0.000000
vt 0.618506 0.021870
vt 0.582785 0.010418
vt 0.624706 0.013544
vt 0.640673 0.052132
vt 0.541337 0.013544
vt 0.650469 0.049003
vt 0.640819 0.089643
vt 0.515574 0.092833
vt 0.525371 0.090093
vt 0.583396 0.131912
vt 0.540899 0.131912
vt 0.618888 0.120076
vt 0.650469 0.092833
vt 0.625894 0.131912
vt 0.022046 0.984526
vt 0.000000 0.954182
vt 0.055332 0.936204
vt 0.022046 0.886333
vt 0.000000 0.916676
vt 0.057716 0.874743
vt 0.093387 0.886333
vt 0.115433 0.916676
vt 0.057716 0.996116
vt 0.093387 0.984526
vt 0.115433 0.954182
vt 0.977618 0.160333
vt 0.963477 0.130397
vt 0.883344 0.160333
vt 0.897485 0.130397
vt 0.930481 0.120021
vt 0.318950 0.838201
vt 0.330577 0.814469
vt 0.319698 0.899045
vt 0.330577 0.898986
vt 0.186688 0.193185
vt 0.186566 0.163594
vt 0.583258 0.131807
vt 0.575920 0.702321
vt 0.601632 0.768266
vt 0.209316 0.745591
vt 0.209754 0.718019
vt 0.224481 0.745591
vt 0.775161 0.716435
vt 0.764282 0.716511
vt 0.547538 0.120354
vt 0.356428 0.524014
vt 0.185117 0.002409
vt 0.186295 0.097725
vt 0.775417 0.751961
vt 0.786046 0.716435
vt 0.894231 0.448035
vt 0.883572 0.422676
vt 0.268025 0.717747
vt 0.253263 0.005561
vt 0.255502 0.095418
vt 0.301344 0.005561
vt 0.282205 0.149569
vt 0.672186 0.661789
vt 0.646733 0.751911
vt 0.646261 0.661947
vt 0.669419 0.630756
vt 0.670861 0.630755
vt 0.286189 0.093192
vt 0.258816 0.161600
vt 0.265032 0.093949
vt 0.283951 0.003335
vt 0.262375 0.141530
vt 0.661350 0.798820
vt 0.646261 0.818197
vt 0.576129 0.672724
vt 0.602397 0.702385
vt 0.531402 0.672824
vt 0.489678 0.672707
vt 0.645666 0.823069
vt 0.138629 0.808757
vt 0.138629 0.764120
vt 0.161110 0.899009
vt 0.175615 0.882590
vt 0.183083 0.790504
vt 0.164844 0.805511
vt 0.179349 0.789091
vt 0.166707 0.809043
vt 0.669513 0.650829
vt 0.670954 0.650828
vt 0.671985 0.568968
vt 0.672481 0.604513
vt 0.673921 0.583213
vt 0.673921 0.604476
vt 0.214245 0.857487
vt 0.183991 0.828499
vt 0.191428 0.825786
vt 0.293123 0.863958
vt 0.251439 0.869683
vt 0.288633 0.857487
vt 0.318886 0.828499
vt 0.311449 0.825786
vt 0.209754 0.863958
vt 0.318886 0.784669
vt 0.311436 0.786793
vt 0.183991 0.784669
vt 0.191471 0.786801
vt 0.213359 0.753028
vt 0.290202 0.753028
vt 0.227920 0.753028
vt 0.251813 0.745591
vt 0.278866 0.753028
vt 0.251766 0.753028
vt 0.949136 0.060011
vt 1.000000 0.036492
vt 1.000000 0.060338
vt 0.966226 0.000044
vt 0.927242 0.000000
vt 0.895540 0.022817
vt 0.883344 0.060011
vt 0.966235 0.120008
vt 0.927241 0.120021
vt 0.895540 0.097205
vt 1.000000 0.087438
vt 1.000000 0.098774
vt 0.774344 0.781274
vt 0.764282 0.816774
vt 0.775199 0.809273
vt 0.095040 0.000108
vt 0.732506 0.716430
vt 0.628596 0.853406
vt 0.977618 0.635135
vt 0.670954 0.637668
vt 0.826645 0.516673
vt 0.786144 0.819191
vt 0.786367 0.708686
vt 0.736191 0.000089
vt 0.661721 0.844118
vt 0.774348 0.816774
vt 0.602051 0.481463
vt 0.535885 0.240554
vt 0.894457 0.377237
vt 0.342210 0.814390
vt 0.909852 0.850429
vt 0.883344 0.255074
vt 0.444758 0.906294
vt 0.898866 0.900336
vt 0.786367 0.899551
vt 0.602051 0.672246
vt 0.720937 0.716553
vt 0.669808 0.481108
vt 0.342210 0.818438
vt 0.342210 0.892066
vt 0.671985 0.481108
vt 0.930481 0.255074
vt 0.341801 0.814390
vt 0.488748 0.672503
vt 0.786367 0.190836
vt 0.669466 0.606985
vt 0.648524 0.661789
vt 0.175615 0.857619
vt 0.134895 0.812982
vt 0.672395 0.583213
vt 0.673425 0.481108
vt -0.000000 0.524287
vt 0.433054 0.000003
vt 0.977618 0.775344
vt 0.396765 0.715098
vt 0.000535 0.715259
vt 0.212171 0.002429
vt 0.341801 0.899924
vt 0.786367 0.707643
vt 0.605027 0.662541
vt 0.899019 0.707864
vt 0.319677 0.814469
vt 0.909733 0.708052
vt 0.894227 0.351635
vt 0.900220 0.588219
vt 0.429836 0.715076
vt 0.489678 0.863680
vt 0.395914 0.905879
vt 0.786367 0.516673
vt 0.658046 0.583213
vt 0.905447 0.329338
vt 0.671985 0.579660
vt 0.319698 0.814528
vt 0.602740 0.863761
vt 0.183991 0.193886
vt 0.263630 0.718019
vt 0.775161 0.716455
vt 0.883344 0.448168
vt 0.672646 0.751753
vt 0.262796 0.004092
vt 0.602740 0.672788
vt 0.134895 0.902256
vt 0.673425 0.568956
vt 0.672481 0.583250
vt 0.251439 0.877503
vt 1.000000 0.021931
vt 0.775161 0.816699
s 1
f 14/1/14 2/2/2 1/3/1
f 99/4/89 7/5/7 3/6/3
f 13/7/13 8/8/8 109/9/97
f 12/10/12 104/11/93 17/12/9
f 21/13/9 2/14/2 15/15/15
f 4/16/4 8/17/8 5/18/5
f 5/18/5 16/19/16 18/20/17
f 5/21/5 11/22/11 4/23/4
f 8/24/8 9/25/9 16/26/16
f 17/12/9 6/27/6 21/13/9
f 18/28/17 10/29/10 5/30/5
f 10/31/10 19/32/18 11/33/11
f 57/34/53 161/35/138 60/36/56
f 2/2/2 7/5/7 1/3/1
f 42/37/38 66/38/62 65/39/61
f 46/40/42 63/41/59 43/42/39
f 48/43/44 37/44/35 53/45/49
f 106/46/95 52/47/48 105/48/94
f 32/49/30 89/50/36 39/51/36
f 43/42/39 66/38/62 44/52/40
f 37/53/35 32/54/30 39/55/36
f 40/56/35 90/57/83 34/58/32
f 106/59/95 27/60/25 71/61/67
f 26/62/24 78/63/74 79/64/75
f 34/65/32 87/66/82 27/67/25
f 70/68/66 46/69/42 51/70/47
f 28/71/26 77/72/73 75/73/71
f 51/70/47 94/74/85 70/68/66
f 38/75/36 34/76/32 106/59/95
f 45/77/41 65/78/61 67/79/63
f 29/80/27 41/81/37 32/54/30
f 72/82/68 84/83/80 41/84/37
f 25/85/23 83/86/79 82/87/78
f 35/88/33 82/87/78 81/89/77
f 23/90/21 76/91/72 83/92/79
f 22/93/20 81/94/77 73/95/69
f 36/96/34 75/97/71 78/63/74
f 31/98/29 79/99/75 80/100/76
f 24/101/22 80/100/76 76/91/72
f 71/61/67 27/60/25 72/102/68
f 69/103/65 72/102/68 41/81/37
f 29/104/27 50/105/46 69/106/65
f 68/107/64 45/77/41 67/79/63
f 68/108/64 95/109/86 49/110/45
f 120/111/107 148/112/130 122/113/109
f 145/114/127 123/115/110 121/116/108
f 14/1/14 133/117/119 132/118/49
f 127/119/114 109/9/97 128/120/115
f 148/112/130 121/116/108 122/113/109
f 123/121/110 151/122/133 126/123/113
f 126/123/113 152/124/134 130/125/117
f 125/126/112 147/127/129 120/128/107
f 113/129/100 61/130/57 108/131/96
f 103/132/92 167/133/87 96/134/87
f 54/135/50 160/136/137 55/137/51
f 156/138/87 169/139/145 97/140/88
f 59/141/55 165/142/142 56/143/52
f 7/144/7 98/145/9 153/146/135
f 97/140/88 164/147/141 59/148/55
f 58/149/54 162/150/139 57/151/53
f 96/134/87 159/152/87 155/153/87
f 133/117/119 50/105/46 48/43/44
f 124/154/111 45/77/41 49/155/45
f 124/156/111 95/109/86 131/157/118
f 4/158/4 19/159/18 62/160/58
f 61/130/57 4/16/4 62/161/58
f 31/162/29 64/163/60 26/164/24
f 23/165/21 66/166/62 24/167/22
f 25/168/23 65/169/61 23/165/21
f 24/167/22 63/170/59 31/162/29
f 35/171/33 67/172/63 25/168/23
f 26/164/24 70/173/66 36/174/34
f 101/175/70 71/61/67 72/102/68
f 68/176/64 22/177/20 102/178/91
f 73/179/69 74/180/70 77/181/73
f 78/182/74 75/183/71 74/180/70
f 78/182/74 74/180/70 79/184/75
f 79/184/75 74/180/70 80/185/76
f 80/185/76 74/180/70 76/186/72
f 73/179/69 81/187/77 74/180/70
f 81/187/77 82/188/78 74/180/70
f 83/189/79 74/180/70 82/188/78
f 76/186/72 74/180/70 83/189/79
f 86/190/81 85/191/70 89/192/36
f 84/193/80 93/194/70 85/191/70
f 88/195/70 90/196/83 92/197/35
f 93/194/70 87/198/82 88/195/70
f 27/67/25 91/199/84 72/82/68
f 41/200/37 86/201/81 32/49/30
f 152/124/134 127/202/114 130/125/117
f 22/177/20 101/175/70 102/178/91
f 131/203/118 50/105/46 129/204/116
f 102/205/91 50/105/46 95/206/86
f 152/207/134 154/208/136 13/209/13
f 55/137/51 163/210/140 58/149/54
f 101/175/70 69/103/65 102/178/91
f 28/211/26 70/173/66 94/212/85
f 154/213/136 3/214/3 104/215/93
f 94/74/85 52/216/48 71/217/67
f 60/36/56 168/218/144 103/219/92
f 73/95/69 33/220/31 22/93/20
f 33/221/31 94/212/85 101/175/70
f 104/215/93 13/7/13 154/213/136
f 135/222/121 105/223/94 47/224/43
f 135/222/121 38/225/36 106/226/95
f 108/131/96 119/227/106 113/129/100
f 47/228/43 139/229/123 135/230/121
f 138/231/35 143/232/125 117/233/104
f 134/234/120 111/235/36 136/236/122
f 109/237/97 114/238/101 128/239/115
f 134/234/120 112/240/99 110/241/98
f 113/129/100 114/238/101 109/237/97
f 136/242/122 115/243/102 134/244/120
f 115/243/102 119/245/106 134/244/120
f 114/246/101 119/245/106 118/247/105
f 47/228/43 118/247/105 115/243/102
f 153/248/135 129/204/116 7/5/7
f 130/125/117 52/216/48 100/249/90
f 124/156/111 153/250/135 150/251/132
f 150/252/132 125/126/112 124/154/111
f 1/3/1 129/204/116 133/117/119
f 125/126/112 42/253/38 45/77/41
f 51/70/47 130/125/117 100/249/90
f 46/69/42 126/123/113 51/70/47
f 122/113/109 43/42/39 44/52/40
f 52/47/48 128/120/115 105/48/94
f 132/118/49 48/43/44 53/45/49
f 121/116/108 46/40/42 43/42/39
f 42/37/38 122/113/109 44/52/40
f 128/239/115 47/224/43 105/223/94
f 30/254/28 107/255/36 135/256/121
f 143/257/125 141/258/36 144/259/126
f 116/260/103 136/261/122 117/262/104
f 30/254/28 139/263/123 116/260/103
f 117/262/104 111/264/36 138/265/35
f 117/266/104 144/267/126 116/268/103
f 30/269/28 141/270/36 137/271/36
f 116/268/103 142/272/124 30/273/28
f 77/181/73 74/180/70 75/183/71
f 58/274/54 146/275/128 145/276/127
f 55/277/51 147/278/129 54/279/50
f 54/279/50 149/280/131 56/281/52
f 55/277/51 145/276/127 148/282/130
f 56/281/52 150/283/132 59/284/55
f 57/285/53 151/286/133 146/275/128
f 103/287/92 151/286/133 60/288/56
f 97/289/88 150/283/132 153/146/135
f 103/287/92 154/208/136 152/207/134
f 156/290/87 99/291/89 155/292/87
f 96/293/87 99/291/89 154/208/136
f 97/289/88 98/145/9 156/290/87
f 158/294/9 159/295/87 167/296/87
f 161/297/138 167/296/87 168/298/144
f 161/297/138 162/299/139 158/294/9
f 162/299/139 163/300/140 158/294/9
f 163/300/140 160/301/137 158/294/9
f 164/302/141 158/294/9 165/303/142
f 166/304/143 165/303/142 158/294/9
f 160/301/137 166/304/143 158/294/9
f 157/305/87 159/295/87 158/294/9
f 157/305/87 164/302/141 169/306/145
f 56/143/52 166/307/143 54/308/50
f 155/153/87 157/309/87 156/138/87
f 14/1/14 171/310/147 15/311/15
f 172/312/148 176/313/152 247/314/221
f 181/315/157 177/316/153 180/317/156
f 17/12/9 252/318/225 180/319/156
f 21/13/9 171/320/147 175/321/151
f 177/316/153 173/322/149 174/323/150
f 16/19/16 174/323/150 18/20/17
f 179/324/155 174/325/150 173/326/149
f 9/25/9 177/327/153 16/26/16
f 17/12/9 175/321/151 172/328/148
f 178/329/154 18/28/17 174/330/150
f 19/32/18 178/331/154 179/332/155
f 299/333/267 212/334/188 215/335/191
f 176/313/152 171/336/147 170/337/146
f 198/338/174 219/339/195 200/340/176
f 216/341/192 202/342/178 199/343/175
f 37/44/35 204/344/180 53/45/49
f 208/345/184 254/346/227 253/347/226
f 89/50/36 192/348/168 39/51/36
f 219/339/195 199/349/175 200/340/176
f 37/53/35 192/350/168 189/351/165
f 240/352/215 40/56/35 194/353/170
f 187/354/163 254/355/227 224/356/200
f 186/357/162 231/358/206 196/359/172
f 239/360/214 194/353/170 187/361/163
f 202/342/178 223/362/199 207/363/183
f 230/364/205 188/365/164 228/366/203
f 207/367/183 242/368/217 248/369/222
f 194/370/170 38/75/36 254/355/227
f 201/371/177 218/372/194 198/338/174
f 189/351/165 197/373/173 222/374/198
f 237/375/212 225/376/201 197/377/173
f 185/378/161 236/379/211 183/380/159
f 195/381/171 235/382/210 185/383/161
f 183/380/159 229/384/204 184/385/160
f 182/386/158 234/387/209 195/381/171
f 196/388/172 228/366/203 188/365/164
f 191/389/167 232/390/207 186/357/162
f 184/385/160 233/391/208 191/392/167
f 224/356/200 225/393/201 187/354/163
f 222/374/198 197/373/173 225/393/201
f 189/394/165 206/395/182 204/396/180
f 221/397/197 201/398/177 205/399/181
f 221/397/197 243/400/218 250/401/223
f 263/402/236 286/403/259 285/404/258
f 266/405/239 283/406/256 264/407/237
f 275/408/248 14/1/14 132/118/49
f 255/409/228 270/410/243 271/411/244
f 264/412/237 286/403/259 265/413/238
f 289/414/262 266/405/239 269/415/242
f 269/416/242 290/417/263 289/418/262
f 268/419/241 285/404/258 287/420/260
f 61/130/57 256/421/229 108/131/96
f 305/422/219 251/423/224 244/424/219
f 298/425/266 209/426/185 210/427/186
f 307/428/274 294/429/219 245/430/220
f 303/431/271 214/432/190 211/433/187
f 176/434/152 291/435/264 246/436/9
f 302/437/270 245/438/220 214/432/190
f 300/439/268 213/440/189 212/334/188
f 297/441/219 244/424/219 293/442/219
f 275/443/248 206/395/182 272/444/245
f 267/445/240 201/398/177 268/446/241
f 267/445/240 243/400/218 205/399/181
f 19/159/18 173/447/149 62/160/58
f 61/130/57 173/322/149 255/409/228
f 217/448/193 191/449/167 186/450/162
f 219/451/195 183/452/159 184/453/160
f 218/454/194 185/455/161 183/452/159
f 216/456/192 184/453/160 191/449/167
f 220/457/196 195/458/171 185/455/161
f 223/459/199 186/450/162 196/460/172
f 249/461/70 224/356/200 242/462/217
f 182/463/158 221/464/197 250/465/223
f 226/466/202 230/467/205 227/468/70
f 231/469/206 227/468/70 228/470/203
f 231/469/206 232/471/207 227/468/70
f 232/471/207 233/472/208 227/468/70
f 233/472/208 229/473/204 227/468/70
f 226/466/202 227/468/70 234/474/209
f 234/474/209 227/468/70 235/475/210
f 236/476/211 235/475/210 227/468/70
f 229/473/204 236/476/211 227/468/70
f 85/191/70 238/477/213 89/192/36
f 93/194/70 237/478/212 85/191/70
f 88/195/70 240/479/215 239/480/214
f 93/194/70 239/480/214 241/481/216
f 241/482/216 187/483/163 225/376/201
f 238/484/213 197/377/173 192/485/168
f 270/410/243 290/486/263 273/487/246
f 182/463/158 249/461/70 193/488/169
f 274/489/247 206/490/182 243/400/218
f 206/490/182 250/401/223 243/400/218
f 290/491/263 181/492/157 292/493/265
f 301/494/269 210/427/186 213/495/189
f 222/374/198 249/461/70 250/465/223
f 223/459/199 188/496/164 242/462/217
f 292/497/265 172/312/148 247/314/221
f 242/498/217 208/345/184 248/499/222
f 306/500/273 215/501/191 251/423/224
f 226/502/202 193/503/169 230/364/205
f 193/488/169 242/462/217 188/496/164
f 252/504/225 181/315/157 180/317/156
f 253/347/226 277/505/250 203/506/179
f 277/505/250 38/225/36 107/507/36
f 262/508/235 108/131/96 256/421/229
f 279/509/252 203/510/179 277/511/250
f 281/512/254 138/231/35 260/513/233
f 276/514/249 111/235/36 110/241/98
f 255/409/228 271/411/244 257/515/230
f 276/514/249 112/240/99 262/508/235
f 256/421/229 255/409/228 257/515/230
f 258/516/231 278/517/251 276/514/249
f 258/516/231 262/508/235 261/518/234
f 262/508/235 257/515/230 261/518/234
f 203/510/179 261/519/234 257/520/230
f 291/521/264 272/522/245 274/489/247
f 208/345/184 273/487/246 248/499/222
f 291/521/264 267/445/240 288/523/261
f 288/523/261 268/446/241 287/524/260
f 170/337/146 272/444/245 176/313/152
f 198/338/174 268/419/241 201/371/177
f 207/367/183 273/525/246 269/416/242
f 269/415/242 202/342/178 207/363/183
f 199/349/175 265/413/238 200/340/176
f 271/411/244 208/345/184 253/347/226
f 204/344/180 132/118/49 53/45/49
f 202/342/178 264/407/237 199/343/175
f 198/338/174 265/413/238 263/402/236
f 271/411/244 203/506/179 257/515/230
f 190/526/166 107/255/36 137/527/36
f 282/528/255 141/258/36 281/529/254
f 278/530/251 259/531/232 260/532/233
f 279/533/252 190/526/166 259/531/232
f 111/264/36 260/532/233 138/265/35
f 282/534/255 260/513/233 259/535/232
f 141/270/36 190/536/166 137/271/36
f 280/537/253 259/538/232 190/539/166
f 230/467/205 228/470/203 227/468/70
f 213/540/189 284/541/257 212/542/188
f 285/543/258 210/544/186 209/545/185
f 287/546/260 209/545/185 211/547/187
f 210/544/186 283/548/256 213/540/189
f 288/549/261 211/547/187 214/550/190
f 212/542/188 289/551/262 215/552/191
f 289/551/262 251/553/224 215/552/191
f 245/554/220 288/549/261 214/550/190
f 251/553/224 292/493/265 244/555/219
f 247/556/221 294/557/219 293/558/219
f 244/555/219 247/556/221 293/558/219
f 246/436/9 245/554/220 294/557/219
f 296/559/9 305/560/219 297/561/219
f 299/562/267 305/560/219 296/559/9
f 299/562/267 296/559/9 300/563/268
f 300/563/268 296/559/9 301/564/269
f 301/564/269 296/559/9 298/565/266
f 302/566/270 303/567/271 296/559/9
f 304/568/272 296/559/9 303/567/271
f 298/565/266 296/559/9 304/568/272
f 295/569/219 296/559/9 297/561/219
f 302/566/270 295/569/219 307/570/274
f 304/571/272 211/572/187 209/426/185
f 295/573/219 293/442/219 294/429/219
f 14/1/14 15/311/15 2/2/2
f 98/145/9 7/144/7 99/291/89
f 7/5/7 6/574/6 3/6/3
f 13/7/13 12/575/12 8/8/8
f 17/12/9 9/25/9 12/10/12
f 104/11/93 3/576/3 17/12/9
f 21/13/9 6/27/6 2/14/2
f 4/16/4 109/237/97 8/17/8
f 5/18/5 8/17/8 16/19/16
f 5/21/5 10/577/10 11/22/11
f 8/24/8 12/10/12 9/25/9
f 17/12/9 3/576/3 6/27/6
f 18/28/17 20/578/19 10/29/10
f 10/31/10 20/579/19 19/32/18
f 57/34/53 162/580/139 161/35/138
f 2/2/2 6/574/6 7/5/7
f 42/37/38 44/52/40 66/38/62
f 46/40/42 64/581/60 63/41/59
f 48/43/44 29/104/27 37/44/35
f 106/46/95 71/582/67 52/47/48
f 32/49/30 86/201/81 89/50/36
f 43/42/39 63/41/59 66/38/62
f 37/53/35 29/80/27 32/54/30
f 40/56/35 92/583/35 90/57/83
f 106/59/95 34/76/32 27/60/25
f 26/62/24 36/96/34 78/63/74
f 34/65/32 90/584/83 87/66/82
f 70/68/66 64/585/60 46/69/42
f 28/71/26 33/220/31 77/72/73
f 51/70/47 100/249/90 94/74/85
f 38/75/36 40/586/35 34/76/32
f 45/77/41 42/253/38 65/78/61
f 29/80/27 69/103/65 41/81/37
f 72/82/68 91/199/84 84/83/80
f 25/85/23 23/587/21 83/86/79
f 35/88/33 25/85/23 82/87/78
f 23/90/21 24/101/22 76/91/72
f 22/93/20 35/588/33 81/94/77
f 36/96/34 28/589/26 75/97/71
f 31/98/29 26/590/24 79/99/75
f 24/101/22 31/98/29 80/100/76
f 29/104/27 48/43/44 50/105/46
f 68/107/64 49/155/45 45/77/41
f 68/108/64 102/591/91 95/109/86
f 120/111/107 147/592/129 148/112/130
f 145/114/127 146/593/128 123/115/110
f 14/1/14 1/3/1 133/117/119
f 127/119/114 13/7/13 109/9/97
f 148/112/130 145/114/127 121/116/108
f 123/121/110 146/594/128 151/122/133
f 126/123/113 151/122/133 152/124/134
f 125/126/112 149/595/131 147/127/129
f 113/129/100 109/237/97 61/130/57
f 103/132/92 168/596/144 167/133/87
f 54/135/50 166/597/143 160/136/137
f 156/138/87 157/309/87 169/139/145
f 59/141/55 164/598/141 165/142/142
f 97/140/88 169/139/145 164/147/141
f 58/149/54 163/210/140 162/150/139
f 96/134/87 167/133/87 159/152/87
f 133/117/119 129/204/116 50/105/46
f 124/154/111 125/126/112 45/77/41
f 124/156/111 49/110/45 95/109/86
f 4/158/4 11/599/11 19/159/18
f 61/130/57 109/237/97 4/16/4
f 31/162/29 63/170/59 64/163/60
f 23/165/21 65/169/61 66/166/62
f 25/168/23 67/172/63 65/169/61
f 24/167/22 66/166/62 63/170/59
f 35/171/33 68/176/64 67/172/63
f 26/164/24 64/163/60 70/173/66
f 101/175/70 94/212/85 71/61/67
f 68/176/64 35/171/33 22/177/20
f 86/190/81 84/193/80 85/191/70
f 84/193/80 91/600/84 93/194/70
f 88/195/70 87/198/82 90/196/83
f 93/194/70 91/600/84 87/198/82
f 27/67/25 87/66/82 91/199/84
f 41/200/37 84/601/80 86/201/81
f 152/124/134 13/602/13 127/202/114
f 22/177/20 33/221/31 101/175/70
f 131/203/118 95/206/86 50/105/46
f 102/205/91 69/106/65 50/105/46
f 55/137/51 160/136/137 163/210/140
f 101/175/70 72/102/68 69/103/65
f 28/211/26 36/174/34 70/173/66
f 154/213/136 99/603/89 3/214/3
f 94/74/85 100/249/90 52/216/48
f 60/36/56 161/35/138 168/218/144
f 73/95/69 77/72/73 33/220/31
f 33/221/31 28/211/26 94/212/85
f 104/215/93 12/575/12 13/7/13
f 135/222/121 106/226/95 105/223/94
f 135/222/121 107/507/36 38/225/36
f 108/131/96 112/240/99 119/227/106
f 47/228/43 115/243/102 139/229/123
f 138/231/35 140/604/35 143/232/125
f 134/234/120 110/241/98 111/235/36
f 134/234/120 119/227/106 112/240/99
f 136/242/122 139/229/123 115/243/102
f 115/243/102 118/247/105 119/245/106
f 114/246/101 113/605/100 119/245/106
f 47/228/43 114/246/101 118/247/105
f 153/248/135 131/203/118 129/204/116
f 130/125/117 127/202/114 52/216/48
f 124/156/111 131/157/118 153/250/135
f 150/252/132 149/595/131 125/126/112
f 1/3/1 7/5/7 129/204/116
f 125/126/112 120/128/107 42/253/38
f 51/70/47 126/123/113 130/125/117
f 46/69/42 123/121/110 126/123/113
f 122/113/109 121/116/108 43/42/39
f 52/47/48 127/119/114 128/120/115
f 132/118/49 133/117/119 48/43/44
f 121/116/108 123/115/110 46/40/42
f 42/37/38 120/111/107 122/113/109
f 128/239/115 114/238/101 47/224/43
f 30/254/28 137/527/36 107/255/36
f 140/606/35 141/258/36 143/257/125
f 141/258/36 142/607/124 144/259/126
f 116/260/103 139/263/123 136/261/122
f 30/254/28 135/256/121 139/263/123
f 117/262/104 136/261/122 111/264/36
f 117/266/104 143/608/125 144/267/126
f 30/269/28 142/609/124 141/270/36
f 116/268/103 144/267/126 142/272/124
f 58/274/54 57/285/53 146/275/128
f 55/277/51 148/282/130 147/278/129
f 54/279/50 147/278/129 149/280/131
f 55/277/51 58/274/54 145/276/127
f 56/281/52 149/280/131 150/283/132
f 57/285/53 60/288/56 151/286/133
f 103/287/92 152/207/134 151/286/133
f 97/289/88 59/284/55 150/283/132
f 103/287/92 96/293/87 154/208/136
f 156/290/87 98/145/9 99/291/89
f 96/293/87 155/292/87 99/291/89
f 97/289/88 153/146/135 98/145/9
f 161/297/138 158/294/9 167/296/87
f 157/305/87 158/294/9 164/302/141
f 56/143/52 165/142/142 166/307/143
f 155/153/87 159/152/87 157/309/87
f 14/1/14 170/610/146 171/310/147
f 175/611/151 176/313/152 172/312/148
f 176/434/152 246/436/9 247/556/221
f 181/315/157 255/409/228 177/316/153
f 180/319/156 9/25/9 17/12/9
f 17/12/9 172/328/148 252/318/225
f 21/13/9 15/15/15 171/320/147
f 177/316/153 255/409/228 173/322/149
f 16/19/16 177/316/153 174/323/150
f 179/324/155 178/612/154 174/325/150
f 9/25/9 180/319/156 177/327/153
f 17/12/9 21/13/9 175/321/151
f 178/329/154 20/578/19 18/28/17
f 19/32/18 20/579/19 178/331/154
f 299/333/267 300/439/268 212/334/188
f 176/313/152 175/611/151 171/336/147
f 198/338/174 218/372/194 219/339/195
f 216/341/192 217/613/193 202/342/178
f 37/44/35 189/614/165 204/344/180
f 208/345/184 224/615/200 254/346/227
f 89/50/36 238/616/213 192/348/168
f 219/339/195 216/617/192 199/349/175
f 37/53/35 39/55/36 192/350/168
f 240/352/215 92/583/35 40/56/35
f 187/354/163 194/370/170 254/355/227
f 186/357/162 232/390/207 231/358/206
f 239/360/214 240/352/215 194/353/170
f 202/342/178 217/613/193 223/362/199
f 230/364/205 193/503/169 188/365/164
f 207/367/183 223/618/199 242/368/217
f 194/370/170 40/586/35 38/75/36
f 201/371/177 220/619/196 218/372/194
f 189/351/165 192/350/168 197/373/173
f 237/375/212 241/482/216 225/376/201
f 185/378/161 235/620/210 236/379/211
f 195/381/171 234/387/209 235/382/210
f 183/380/159 236/379/211 229/384/204
f 182/386/158 226/621/202 234/387/209
f 196/388/172 231/622/206 228/366/203
f 191/389/167 233/623/208 232/390/207
f 184/385/160 229/384/204 233/391/208
f 189/394/165 222/624/198 206/395/182
f 221/397/197 220/625/196 201/398/177
f 221/397/197 205/399/181 243/400/218
f 263/402/236 265/413/238 286/403/259
f 266/405/239 284/626/257 283/406/256
f 275/408/248 170/610/146 14/1/14
f 255/409/228 181/315/157 270/410/243
f 264/412/237 283/627/256 286/403/259
f 289/414/262 284/626/257 266/405/239
f 269/416/242 273/525/246 290/417/263
f 268/419/241 263/402/236 285/404/258
f 61/130/57 255/409/228 256/421/229
f 305/422/219 306/500/273 251/423/224
f 298/425/266 304/571/272 209/426/185
f 307/428/274 295/573/219 294/429/219
f 303/431/271 302/437/270 214/432/190
f 302/437/270 307/628/274 245/438/220
f 300/439/268 301/629/269 213/440/189
f 297/441/219 305/422/219 244/424/219
f 275/443/248 204/396/180 206/395/182
f 267/445/240 205/399/181 201/398/177
f 267/445/240 274/489/247 243/400/218
f 19/159/18 179/630/155 173/447/149
f 61/130/57 62/161/58 173/322/149
f 217/448/193 216/456/192 191/449/167
f 219/451/195 218/454/194 183/452/159
f 218/454/194 220/457/196 185/455/161
f 216/456/192 219/451/195 184/453/160
f 220/457/196 221/464/197 195/458/171
f 223/459/199 217/448/193 186/450/162
f 249/461/70 225/393/201 224/356/200
f 182/463/158 195/458/171 221/464/197
f 85/191/70 237/478/212 238/477/213
f 93/194/70 241/481/216 237/478/212
f 88/195/70 92/197/35 240/479/215
f 93/194/70 88/195/70 239/480/214
f 241/482/216 239/631/214 187/483/163
f 238/484/213 237/375/212 197/377/173
f 270/410/243 181/315/157 290/486/263
f 182/463/158 250/465/223 249/461/70
f 274/489/247 272/522/245 206/490/182
f 206/490/182 222/632/198 250/401/223
f 301/494/269 298/425/266 210/427/186
f 222/374/198 225/393/201 249/461/70
f 223/459/199 196/460/172 188/496/164
f 292/633/265 252/504/225 172/634/148
f 242/498/217 224/615/200 208/345/184
f 306/500/273 299/635/267 215/501/191
f 226/502/202 182/636/158 193/503/169
f 193/488/169 249/461/70 242/462/217
f 252/504/225 292/633/265 181/315/157
f 253/347/226 254/346/227 277/505/250
f 277/505/250 254/346/227 38/225/36
f 262/508/235 112/240/99 108/131/96
f 279/509/252 258/637/231 203/510/179
f 281/512/254 140/604/35 138/231/35
f 276/514/249 278/517/251 111/235/36
f 276/514/249 110/241/98 112/240/99
f 258/516/231 279/638/252 278/517/251
f 258/516/231 276/514/249 262/508/235
f 262/508/235 256/421/229 257/515/230
f 203/510/179 258/637/231 261/519/234
f 291/521/264 176/639/152 272/522/245
f 208/345/184 270/410/243 273/487/246
f 291/521/264 274/489/247 267/445/240
f 288/523/261 267/445/240 268/446/241
f 170/337/146 275/443/248 272/444/245
f 198/338/174 263/402/236 268/419/241
f 207/367/183 248/369/222 273/525/246
f 269/415/242 266/405/239 202/342/178
f 199/349/175 264/412/237 265/413/238
f 271/411/244 270/410/243 208/345/184
f 204/344/180 275/408/248 132/118/49
f 202/342/178 266/405/239 264/407/237
f 198/338/174 200/340/176 265/413/238
f 271/411/244 253/347/226 203/506/179
f 190/526/166 277/607/250 107/255/36
f 280/640/253 141/258/36 282/528/255
f 141/258/36 140/606/35 281/529/254
f 278/530/251 279/533/252 259/531/232
f 279/533/252 277/607/250 190/526/166
f 111/264/36 278/530/251 260/532/233
f 282/534/255 281/512/254 260/513/233
f 141/270/36 280/641/253 190/536/166
f 280/537/253 282/642/255 259/538/232
f 213/540/189 283/548/256 284/541/257
f 285/543/258 286/643/259 210/544/186
f 287/546/260 285/543/258 209/545/185
f 210/544/186 286/643/259 283/548/256
f 288/549/261 287/546/260 211/547/187
f 212/542/188 284/541/257 289/551/262
f 289/551/262 290/491/263 251/553/224
f 245/554/220 291/435/264 288/549/261
f 251/553/224 290/491/263 292/493/265
f 247/556/221 246/436/9 294/557/219
f 244/555/219 292/493/265 247/556/221
f 246/436/9 291/435/264 245/554/220
f 299/562/267 306/644/273 305/560/219
f 302/566/270 296/559/9 295/569/219
f 304/571/272 303/645/271 211/572/187
f 295/573/219 297/441/219 293/442/219
