# Blender 4.1.0
# www.blender.org
o Vivi_Magic_Rod.001
v -0.288690 0.748923 0.300502
v -0.287366 0.756125 0.306642
v -0.328863 0.843374 0.348421
v -0.338633 0.857458 0.330732
v -0.333662 0.854282 0.325405
v -0.318472 0.869654 0.305046
v -0.367836 0.897841 0.354047
v -0.283809 0.872012 0.302248
v -0.325573 0.899319 0.306536
v -0.258433 0.860353 0.330445
v -0.267135 0.847179 0.342593
v -0.244031 0.901794 0.317295
v -0.272776 0.916564 0.306982
v -0.324739 0.939042 0.329389
v -0.244921 0.945316 0.289625
v -0.281261 0.973151 0.304753
v -0.223272 1.007081 0.294690
v -0.225381 1.053178 0.330461
v -0.238447 1.077891 0.403998
v -0.276835 1.042046 0.332216
v -0.264855 1.081817 0.377104
v -0.300895 1.081867 0.447305
v -0.333283 0.999009 0.344697
v -0.333142 1.061865 0.376448
v -0.322114 1.086952 0.415722
v -0.381542 1.053017 0.434923
v -0.369567 1.046967 0.471796
v -0.386523 1.017351 0.394094
v -0.378422 0.948806 0.358625
v -0.406939 1.018587 0.430746
v -0.406072 1.008820 0.468708
v -0.420276 0.959985 0.405420
v -0.411053 0.926914 0.387130
v -0.267763 -0.095276 -0.132355
v -0.293380 -0.114618 -0.149562
v -0.270508 -0.086758 -0.150676
v -0.250625 -0.040454 -0.099834
v -0.255231 -0.026159 -0.130583
v -0.271854 0.053048 -0.056942
v -0.281363 0.046765 -0.043974
v -0.286734 -0.081817 -0.161997
v -0.275265 0.218127 0.024372
v -0.274545 0.061407 -0.074921
v -0.277513 0.493544 0.158824
v -0.277715 0.225750 0.007978
v -0.279650 0.500215 0.144480
v -0.280167 0.710369 0.267990
v -0.289035 0.705512 0.277838
v -0.278988 0.754262 0.289674
v -0.280041 0.761076 0.275367
v -0.282167 0.717592 0.252793
v -0.292082 0.765718 0.265211
v -0.293873 0.721164 0.244888
v -0.310585 0.764796 0.266470
v -0.292357 0.504098 0.135593
v -0.309144 0.720090 0.246582
v -0.292236 0.230179 -0.002165
v -0.308214 0.502901 0.137400
v -0.318397 0.714654 0.257629
v -0.317893 0.497319 0.148860
v -0.316615 0.708447 0.270691
v -0.317245 0.751200 0.294696
v -0.315719 0.490640 0.163220
v -0.302957 0.704319 0.279831
v -0.303973 0.747630 0.302655
v -0.287184 0.487977 0.170253
v -0.303008 0.486776 0.172071
v -0.283744 0.212448 0.036097
v -0.299254 0.211759 0.036835
v -0.313777 0.216177 0.026714
v -0.298582 0.045953 -0.043055
v -0.271340 -0.052381 -0.075342
v -0.316248 0.223805 0.010310
v -0.314507 0.050799 -0.054159
v -0.305245 -0.054953 -0.071456
v -0.307766 0.229491 -0.001432
v -0.300308 -0.103915 -0.115446
v -0.280106 -0.102382 -0.117762
v -0.332478 -0.046665 -0.090450
v -0.316534 -0.098976 -0.126764
v -0.317209 0.059161 -0.072143
v -0.319282 -0.090457 -0.145087
v -0.337090 -0.032368 -0.121202
v -0.307699 0.065448 -0.085120
v -0.316373 -0.020438 -0.145699
v -0.290469 0.066259 -0.086036
v -0.282463 -0.017867 -0.149583
v -0.306938 -0.083349 -0.159683
v -0.280990 0.838133 0.361135
v -0.275634 0.762677 0.293347
v -0.269364 0.859168 0.317509
v -0.277318 0.769526 0.278945
v -0.292152 0.774852 0.267254
v -0.289165 0.866094 0.302287
v -0.318953 0.865654 0.302127
v -0.311476 0.773603 0.269167
v -0.321031 0.758033 0.280251
v -0.322963 0.766673 0.283262
v -0.319090 0.758438 0.300647
v -0.306041 0.754606 0.309146
v -0.280438 0.841288 0.363760
v -0.305765 0.836925 0.362663
v -0.324643 0.842777 0.364844
v -0.273396 0.864811 0.389332
v -0.237806 0.893522 0.346148
v -0.338799 0.868612 0.401313
v -0.361560 0.879416 0.381568
v -0.275020 0.898768 0.404827
v -0.200609 0.912802 0.335055
v -0.212610 0.926014 0.304784
v -0.183456 0.987502 0.316097
v -0.214290 0.925274 0.386118
v -0.171073 0.967060 0.351785
v -0.178171 1.018811 0.384465
v -0.186111 1.045714 0.353710
v -0.209770 0.986429 0.419901
v -0.223645 1.052551 0.428346
v -0.267709 0.942269 0.439345
v -0.268153 1.003430 0.470019
v -0.281313 1.059555 0.470973
v -0.345817 1.022054 0.495730
v -0.330551 0.958699 0.482159
v -0.372472 0.982674 0.494648
v -0.420119 0.938828 0.443500
v -0.331909 0.899635 0.449359
v -0.392963 0.921313 0.470854
v -0.386557 0.890918 0.443839
v -0.412086 0.902892 0.419662
vn 0.5043 -0.4054 0.7625
vn 0.9189 -0.3836 0.0920
vn 0.4916 -0.5783 0.6510
vn -0.2292 -0.6847 0.6919
vn -0.4145 -0.7809 0.4674
vn -0.6739 -0.7102 0.2035
vn -0.1505 -0.6992 0.6989
vn -0.8433 -0.4236 -0.3308
vn -0.9427 -0.0222 -0.3329
vn -0.6461 -0.7570 -0.0974
vn -0.4876 0.1557 -0.8590
vn -0.4977 0.2698 -0.8243
vn 0.2143 0.2862 -0.9339
vn -0.7552 -0.1966 -0.6253
vn 0.3046 -0.0833 -0.9488
vn 0.7704 -0.3316 -0.5446
vn -0.4525 0.1309 -0.8821
vn 0.8757 -0.4495 -0.1760
vn 0.8920 -0.4246 0.1552
vn 0.4232 -0.5627 -0.7101
vn -0.1262 -0.0212 -0.9918
vn -0.4827 0.1788 -0.8573
vn 0.0446 -0.2037 -0.9780
vn 0.4760 -0.4554 -0.7523
vn 0.7804 0.0917 -0.6185
vn -0.4300 0.1394 -0.8920
vn 0.0558 0.3558 -0.9329
vn 0.2657 0.7620 -0.5905
vn 0.7445 0.6302 -0.2202
vn 0.4763 0.8706 0.1233
vn -0.3171 0.5552 -0.7689
vn -0.0070 0.9443 -0.3291
vn 0.0207 0.9005 0.4343
vn -0.5180 0.2914 -0.8042
vn -0.4698 0.6543 -0.5927
vn -0.2812 0.9545 -0.0995
vn -0.6277 0.7775 -0.0399
vn -0.5179 0.6817 0.5167
vn -0.6799 0.4297 -0.5942
vn -0.6016 0.1428 -0.7860
vn -0.8922 0.4506 -0.0315
vn -0.7373 0.3059 0.6023
vn -0.9356 -0.1613 0.3142
vn -0.9016 0.1731 -0.3965
vn -0.8479 -0.2774 -0.4517
vn -0.7888 -0.6140 -0.0281
vn 0.0166 -0.9030 -0.4294
vn 0.8665 -0.4990 0.0147
vn 0.4322 -0.7950 0.4257
vn 0.5036 -0.4253 0.7520
vn 0.7417 -0.2865 -0.6065
vn 0.9662 -0.1445 0.2133
vn 0.8639 0.1959 -0.4641
vn 0.9770 0.0306 0.2112
vn 0.5023 -0.3194 0.8036
vn 0.2373 -0.0200 -0.9712
vn 0.9754 -0.0860 0.2031
vn 0.5038 -0.3734 0.7789
vn 0.8140 0.3398 -0.4711
vn 0.9693 -0.1001 0.2246
vn 0.5039 -0.3778 0.7768
vn 0.8639 0.2346 -0.4458
vn 0.8631 0.2315 -0.4488
vn 0.9415 -0.1604 0.2964
vn 0.5038 -0.3913 0.7701
vn 0.9502 0.0379 -0.3095
vn 0.8728 0.2046 -0.4430
vn 0.4255 0.2449 -0.8712
vn 0.2611 0.4126 -0.8727
vn -0.5027 0.3456 -0.7924
vn 0.2559 0.4352 -0.8632
vn -0.5038 0.3703 -0.7804
vn 0.2783 0.4368 -0.8554
vn -0.5039 0.3878 -0.7718
vn -0.9685 0.0871 -0.2334
vn -0.9825 -0.1238 -0.1389
vn -0.9675 0.1104 -0.2276
vn -0.8541 -0.2523 0.4549
vn -0.7238 -0.4024 0.5605
vn -0.8644 -0.2270 0.4486
vn -0.1701 -0.4543 0.8745
vn -0.2632 -0.4273 0.8650
vn -0.2888 -0.4213 0.8597
vn -0.8636 -0.2239 0.4517
vn -0.3292 -0.3161 0.8898
vn -0.9731 0.1046 -0.2053
vn -0.9004 -0.1153 0.4196
vn -0.2529 -0.4682 0.8467
vn -0.5039 0.3917 -0.7698
vn -0.2173 -0.7867 0.5778
vn -0.8624 -0.2623 0.4329
vn -0.7216 -0.6750 0.1538
vn -0.9531 0.2224 -0.2055
vn -0.8618 -0.3118 -0.4002
vn -0.9661 0.0706 -0.2485
vn -0.5023 0.4644 -0.7294
vn -0.5029 0.3364 -0.7962
vn 0.2216 0.5343 -0.8158
vn 0.2548 0.3947 -0.8828
vn -0.4215 -0.1595 -0.8927
vn 0.9465 -0.2798 0.1608
vn 0.5016 -0.4997 0.7062
vn 0.8698 -0.0020 -0.4934
vn 0.3106 0.2850 -0.9068
vn -0.4932 0.2015 -0.8462
vn -0.9688 -0.0541 -0.2419
vn -0.8105 -0.4443 0.3816
vn -0.2304 -0.5919 0.7724
vn 0.4970 -0.5347 0.6834
vn 0.4955 -0.6196 0.6088
vn 0.7089 -0.6873 0.1585
vn -0.0735 -0.8483 0.5245
vn 0.4843 -0.6043 0.6326
vn 0.7030 -0.6808 -0.2056
vn 0.6131 -0.6064 0.5064
vn 0.9486 -0.2659 0.1716
vn 0.9188 0.2785 0.2799
vn 0.6979 -0.2191 0.6818
vn 0.6412 0.4446 0.6255
vn 0.4913 -0.4765 0.7291
vn 0.4920 -0.1175 0.8626
vn 0.3447 0.4705 0.8123
vn -0.0420 0.2771 0.9599
vn 0.2613 -0.3416 0.9028
vn -0.3513 -0.0940 0.9315
vn 0.2617 -0.6636 0.7008
vn -0.2850 -0.4740 0.8331
vn -0.4124 -0.8129 0.4113
vt 0.095947 0.004883
vt 0.095886 0.004883
vt 0.092346 0.006348
vt 0.117798 0.004883
vt 0.121399 0.006348
vt 0.117859 0.004883
vt 0.142090 0.034180
vt 0.137085 0.034180
vt 0.138916 0.029785
vt 0.134766 0.039551
vt 0.132690 0.037109
vt 0.147583 0.046387
vt 0.126465 0.040039
vt 0.126465 0.038086
vt 0.120361 0.037109
vt 0.140991 0.051270
vt 0.118286 0.039551
vt 0.115906 0.034668
vt 0.126465 0.046875
vt 0.110962 0.034180
vt 0.114136 0.029785
vt 0.106750 0.044434
vt 0.113464 0.049316
vt 0.126465 0.057129
vt 0.105286 0.056152
vt 0.097595 0.051270
vt 0.088989 0.067383
vt 0.113708 0.062988
vt 0.100159 0.069824
vt 0.100891 0.083008
vt 0.091064 0.086426
vt 0.106567 0.101562
vt 0.112549 0.080078
vt 0.111816 0.094238
vt 0.126587 0.107422
vt 0.126831 0.071777
vt 0.126831 0.087891
vt 0.127441 0.098633
vt 0.143188 0.093750
vt 0.147705 0.101562
vt 0.141235 0.081055
vt 0.139771 0.063477
vt 0.149414 0.085938
vt 0.157715 0.090332
vt 0.162354 0.070801
vt 0.152466 0.070801
vt 0.150879 0.062012
vt 0.159546 0.059082
vt 0.760254 0.002441
vt 0.754883 0.003906
vt 0.753906 0.003906
vt 0.747559 0.009277
vt 0.756836 0.003906
vt 0.750000 0.009277
vt 0.753418 0.009277
vt 0.750000 0.023438
vt 0.747559 0.023438
vt 0.758301 0.003906
vt 0.750000 0.043945
vt 0.747559 0.043945
vt 0.753418 0.023438
vt 0.750000 0.078613
vt 0.747559 0.078613
vt 0.753418 0.043945
vt 0.753418 0.078613
vt 0.750000 0.108887
vt 0.747559 0.108887
vt 0.747559 0.118652
vt 0.750000 0.118652
vt 0.753418 0.118652
vt 0.753418 0.108887
vt 0.756348 0.118652
vt 0.756348 0.108887
vt 0.760254 0.118652
vt 0.756348 0.078613
vt 0.760254 0.108887
vt 0.756348 0.043945
vt 0.760254 0.078613
vt 0.763672 0.108887
vt 0.763672 0.118652
vt 0.763672 0.078613
vt 0.767090 0.108887
vt 0.767090 0.118652
vt 0.767090 0.078613
vt 0.770020 0.108887
vt 0.770020 0.118652
vt 0.772949 0.118652
vt 0.772949 0.108887
vt 0.772949 0.078613
vt 0.770020 0.078613
vt 0.772949 0.043945
vt 0.770020 0.043945
vt 0.772949 0.023438
vt 0.767090 0.043945
vt 0.770020 0.023438
vt 0.772949 0.009277
vt 0.763672 0.043945
vt 0.767090 0.023438
vt 0.770020 0.009277
vt 0.760254 0.043945
vt 0.765137 0.003906
vt 0.766602 0.003906
vt 0.767090 0.009277
vt 0.763672 0.003906
vt 0.763672 0.023438
vt 0.762207 0.003906
vt 0.763672 0.009277
vt 0.760254 0.023438
vt 0.760254 0.009277
vt 0.756348 0.023438
vt 0.756348 0.009277
vt 0.760254 0.003906
vt 0.095886 0.006348
vt 0.092346 0.021973
vt 0.095886 0.021973
vt 0.099426 0.021973
vt 0.099426 0.006348
vt 0.099426 0.004883
vt 0.102905 0.004883
vt 0.102905 0.006348
vt 0.102905 0.021973
vt 0.106873 0.021973
vt 0.106873 0.006348
vt 0.106873 0.004883
vt 0.110840 0.004883
vt 0.110840 0.006348
vt 0.110840 0.021973
vt 0.114319 0.021973
vt 0.114319 0.006348
vt 0.114319 0.004883
vt 0.117859 0.006348
vt 0.117859 0.021973
vt 0.121399 0.021973
vt 0.045441 0.006348
vt 0.050690 0.005371
vt 0.045441 0.008301
vt 0.040161 0.005859
vt 0.056274 0.007324
vt 0.034607 0.007324
vt 0.045532 0.016602
vt 0.060883 0.016602
vt 0.066956 0.011719
vt 0.029358 0.017578
vt 0.022339 0.014160
vt 0.045532 0.024902
vt 0.069885 0.021973
vt 0.076965 0.018066
vt 0.085266 0.035156
vt 0.060822 0.029785
vt 0.075439 0.035645
vt 0.073486 0.049316
vt 0.081665 0.054199
vt 0.065918 0.069824
vt 0.061066 0.045898
vt 0.061981 0.062012
vt 0.045441 0.075684
vt 0.045807 0.038086
vt 0.045807 0.054199
vt 0.045868 0.067383
vt 0.028366 0.061523
vt 0.023819 0.069824
vt 0.012169 0.060059
vt 0.030365 0.046387
vt 0.021393 0.053223
vt 0.006710 0.040039
vt 0.029938 0.031250
vt 0.016251 0.038574
vt 0.017563 0.029297
vt 0.009201 0.027344
s 1
f 1/1/1 49/2/2 2/3/3
f 1/4/1 2/5/3 65/6/4
f 103/7/5 3/8/6 102/9/7
f 3/8/6 103/7/5 4/10/8
f 5/11/9 3/8/6 4/10/8
f 4/10/8 103/7/5 107/12/10
f 4/10/8 6/13/11 5/11/9
f 95/14/12 5/11/9 6/13/11
f 95/14/12 6/13/11 94/15/13
f 7/16/14 4/10/8 107/12/10
f 94/15/13 6/13/11 8/17/15
f 94/15/13 8/17/15 91/18/16
f 6/13/11 9/19/17 8/17/15
f 9/19/17 4/10/8 7/16/14
f 6/13/11 4/10/8 9/19/17
f 91/18/16 8/17/15 10/20/18
f 91/18/16 10/20/18 11/21/19
f 10/20/18 8/17/15 12/22/20
f 9/19/17 13/23/21 8/17/15
f 13/23/21 12/22/20 8/17/15
f 14/24/22 13/23/21 9/19/17
f 14/24/22 9/19/17 7/16/14
f 13/23/21 15/25/23 12/22/20
f 110/26/24 12/22/20 15/25/23
f 15/25/23 111/27/25 110/26/24
f 14/24/22 16/28/26 13/23/21
f 16/28/26 15/25/23 13/23/21
f 15/25/23 17/29/27 111/27/25
f 15/25/23 16/28/26 17/29/27
f 17/29/27 18/30/28 111/27/25
f 18/30/28 115/31/29 111/27/25
f 115/31/29 18/30/28 19/32/30
f 17/29/27 20/33/31 18/30/28
f 16/28/26 20/33/31 17/29/27
f 21/34/32 19/32/30 18/30/28
f 20/33/31 21/34/32 18/30/28
f 19/32/30 21/34/32 22/35/33
f 16/28/26 14/24/22 23/36/34
f 20/33/31 16/28/26 23/36/34
f 24/37/35 20/33/31 23/36/34
f 20/33/31 24/37/35 21/34/32
f 24/37/35 25/38/36 21/34/32
f 22/35/33 21/34/32 25/38/36
f 25/38/36 26/39/37 22/35/33
f 26/39/37 25/38/36 24/37/35
f 27/40/38 22/35/33 26/39/37
f 28/41/39 26/39/37 24/37/35
f 28/41/39 24/37/35 23/36/34
f 29/42/40 28/41/39 23/36/34
f 14/24/22 7/16/14 29/42/40
f 14/24/22 29/42/40 23/36/34
f 26/39/37 30/43/41 27/40/38
f 28/41/39 30/43/41 26/39/37
f 31/44/42 27/40/38 30/43/41
f 31/44/42 30/43/41 124/45/43
f 32/46/44 124/45/43 30/43/41
f 29/42/40 32/46/44 28/41/39
f 32/46/44 30/43/41 28/41/39
f 33/47/45 124/45/43 32/46/44
f 33/47/45 32/46/44 29/42/40
f 29/42/40 7/16/14 33/47/45
f 7/16/14 107/12/10 33/47/45
f 128/48/46 33/47/45 107/12/10
f 128/48/46 124/45/43 33/47/45
f 35/49/47 34/50/48 78/51/49
f 78/51/49 34/50/48 72/52/50
f 34/50/48 35/49/47 36/53/51
f 37/54/52 72/52/50 34/50/48
f 36/53/51 38/55/53 34/50/48
f 38/55/53 37/54/52 34/50/48
f 37/54/52 38/55/53 39/56/54
f 37/54/52 39/56/54 72/52/50
f 39/56/54 40/57/55 72/52/50
f 41/58/56 38/55/53 36/53/51
f 35/49/47 41/58/56 36/53/51
f 39/56/54 42/59/57 40/57/55
f 42/59/57 68/60/58 40/57/55
f 43/61/59 39/56/54 38/55/53
f 42/59/57 44/62/60 68/60/58
f 44/62/60 66/63/61 68/60/58
f 43/61/59 45/64/62 39/56/54
f 45/64/62 42/59/57 39/56/54
f 45/64/62 46/65/63 42/59/57
f 46/65/63 44/62/60 42/59/57
f 44/62/60 47/66/64 66/63/61
f 47/66/64 48/67/65 66/63/61
f 48/67/65 47/66/64 1/68/1
f 49/69/2 1/68/1 47/66/64
f 50/70/66 49/69/2 47/66/64
f 51/71/67 50/70/66 47/66/64
f 46/65/63 51/71/67 44/62/60
f 47/66/64 44/62/60 51/71/67
f 52/72/68 50/70/66 51/71/67
f 53/73/69 52/72/68 51/71/67
f 51/71/67 46/65/63 53/73/69
f 54/74/70 52/72/68 53/73/69
f 46/65/63 45/64/62 55/75/71
f 55/75/71 53/73/69 46/65/63
f 56/76/72 53/73/69 55/75/71
f 56/76/72 54/74/70 53/73/69
f 57/77/73 55/75/71 45/64/62
f 45/64/62 43/61/59 57/77/73
f 55/75/71 57/77/73 58/78/74
f 58/78/74 56/76/72 55/75/71
f 56/76/72 59/79/75 54/74/70
f 97/80/76 54/74/70 59/79/75
f 59/79/75 56/76/72 60/81/77
f 58/78/74 60/81/77 56/76/72
f 59/79/75 61/82/78 97/80/76
f 62/83/79 97/80/76 61/82/78
f 61/82/78 59/79/75 63/84/80
f 60/81/77 63/84/80 59/79/75
f 61/82/78 64/85/81 62/83/79
f 65/86/4 62/83/79 64/85/81
f 65/86/4 64/85/81 1/87/1
f 48/88/65 1/87/1 64/85/81
f 48/88/65 64/85/81 66/89/61
f 64/85/81 61/82/78 67/90/82
f 67/90/82 66/89/61 64/85/81
f 63/84/80 67/90/82 61/82/78
f 66/89/61 67/90/82 68/91/58
f 67/90/82 63/84/80 69/92/83
f 69/92/83 68/91/58 67/90/82
f 68/91/58 69/92/83 40/93/55
f 63/84/80 60/81/77 70/94/84
f 70/94/84 69/92/83 63/84/80
f 69/92/83 70/94/84 71/95/85
f 71/95/85 40/93/55 69/92/83
f 40/93/55 71/95/85 72/96/50
f 60/81/77 58/78/74 73/97/86
f 73/97/86 70/94/84 60/81/77
f 70/94/84 73/97/86 74/98/87
f 74/98/87 71/95/85 70/94/84
f 75/99/88 72/96/50 71/95/85
f 76/100/89 58/78/74 57/77/73
f 76/100/89 73/97/86 58/78/74
f 72/96/50 75/99/88 77/101/90
f 77/101/90 35/49/47 78/102/49
f 78/102/49 72/96/50 77/101/90
f 75/99/88 79/103/91 77/101/90
f 71/95/85 74/98/87 79/103/91
f 75/99/88 71/95/85 79/103/91
f 80/104/92 77/101/90 79/103/91
f 35/49/47 77/101/90 80/104/92
f 81/105/93 74/98/87 73/97/86
f 74/98/87 81/105/93 79/103/91
f 73/97/86 76/100/89 81/105/93
f 82/106/94 35/49/47 80/104/92
f 80/104/92 79/103/91 82/106/94
f 79/103/91 83/107/95 82/106/94
f 83/107/95 79/103/91 81/105/93
f 84/108/96 81/105/93 76/100/89
f 83/107/95 81/105/93 85/109/97
f 81/105/93 84/108/96 85/109/97
f 83/107/95 85/109/97 82/106/94
f 84/108/96 86/110/98 85/109/97
f 57/77/73 86/110/98 76/100/89
f 86/110/98 57/77/73 43/61/59
f 43/61/59 38/55/53 86/110/98
f 84/108/96 76/100/89 86/110/98
f 87/111/99 86/110/98 38/55/53
f 87/111/99 85/109/97 86/110/98
f 38/55/53 41/58/56 87/111/99
f 85/109/97 87/111/99 41/58/56
f 88/112/100 82/106/94 85/109/97
f 41/58/56 35/49/47 88/112/100
f 35/49/47 82/106/94 88/112/100
f 88/112/100 85/109/97 41/58/56
f 90/113/101 89/114/102 2/3/3
f 90/113/101 2/3/3 49/2/2
f 89/114/102 90/113/101 11/115/19
f 11/115/19 90/113/101 91/116/16
f 92/117/103 91/116/16 90/113/101
f 49/2/2 92/117/103 90/113/101
f 50/118/66 92/117/103 49/2/2
f 50/118/66 52/119/68 92/117/103
f 93/120/104 92/117/103 52/119/68
f 92/117/103 93/120/104 91/116/16
f 94/121/13 91/116/16 93/120/104
f 94/121/13 93/120/104 95/122/12
f 96/123/105 95/122/12 93/120/104
f 52/119/68 96/123/105 93/120/104
f 54/124/70 96/123/105 52/119/68
f 54/124/70 97/125/76 96/123/105
f 98/126/106 96/123/105 97/125/76
f 96/123/105 98/126/106 95/122/12
f 5/127/9 95/122/12 98/126/106
f 5/127/9 98/126/106 3/128/6
f 99/129/107 3/128/6 98/126/106
f 97/125/76 99/129/107 98/126/106
f 62/130/79 99/129/107 97/125/76
f 62/130/79 65/6/4 99/129/107
f 100/131/108 99/129/107 65/6/4
f 65/6/4 2/5/3 100/131/108
f 100/131/108 3/128/6 99/129/107
f 3/128/6 100/131/108 102/132/7
f 2/5/3 89/133/102 100/131/108
f 102/132/7 100/131/108 89/133/102
f 89/134/102 11/135/19 101/136/109
f 89/134/102 101/136/109 102/137/7
f 11/135/19 10/138/18 101/136/109
f 102/137/7 101/136/109 103/139/5
f 104/140/110 101/136/109 10/138/18
f 104/140/110 103/139/5 101/136/109
f 105/141/111 104/140/110 10/138/18
f 105/141/111 10/138/18 12/142/20
f 106/143/112 103/139/5 104/140/110
f 103/139/5 106/143/112 107/144/10
f 104/140/110 108/145/113 106/143/112
f 104/140/110 105/141/111 108/145/113
f 12/142/20 109/146/114 105/141/111
f 109/146/114 12/142/20 110/147/24
f 110/147/24 111/148/25 109/146/114
f 105/141/111 112/149/115 108/145/113
f 112/149/115 105/141/111 109/146/114
f 113/150/116 112/149/115 109/146/114
f 109/146/114 111/148/25 113/150/116
f 113/150/116 111/148/25 114/151/117
f 115/152/29 114/151/117 111/148/25
f 115/152/29 19/153/30 114/151/117
f 113/150/116 114/151/117 116/154/118
f 112/149/115 113/150/116 116/154/118
f 117/155/119 116/154/118 114/151/117
f 117/155/119 114/151/117 19/153/30
f 19/153/30 22/156/33 117/155/119
f 118/157/120 108/145/113 112/149/115
f 112/149/115 116/154/118 118/157/120
f 119/158/121 116/154/118 117/155/119
f 118/157/120 116/154/118 119/158/121
f 117/155/119 120/159/122 119/158/121
f 120/159/122 117/155/119 22/156/33
f 121/160/123 119/158/121 120/159/122
f 120/159/122 22/156/33 121/160/123
f 121/160/123 22/156/33 27/161/38
f 27/161/38 31/162/42 121/160/123
f 118/157/120 119/158/121 122/163/124
f 119/158/121 121/160/123 122/163/124
f 121/160/123 123/164/125 122/163/124
f 123/164/125 121/160/123 31/162/42
f 123/164/125 31/162/42 124/165/43
f 118/157/120 125/166/126 108/145/113
f 106/143/112 108/145/113 125/166/126
f 125/166/126 118/157/120 122/163/124
f 126/167/127 122/163/124 123/164/125
f 125/166/126 122/163/124 126/167/127
f 126/167/127 123/164/125 124/165/43
f 126/167/127 127/168/128 125/166/126
f 127/168/128 126/167/127 124/165/43
f 107/144/10 106/143/112 127/168/128
f 125/166/126 127/168/128 106/143/112
f 107/144/10 127/168/128 128/169/46
f 127/168/128 124/165/43 128/169/46
